<?xml version="1.0" encoding="utf-8"?>
<!-- Generator: Adobe Illustrator 23.0.3, SVG Export Plug-In . SVG Version: 6.00 Build 0)  -->
<svg version="1.1" id="Layer_1" xmlns="http://www.w3.org/2000/svg" xmlns:xlink="http://www.w3.org/1999/xlink" x="0px" y="0px"
	 viewBox="0 0 281.77 233.32" style="enable-background:new 0 0 281.77 233.32;" xml:space="preserve">
<style type="text/css">
	.st0{fill:#DDE1DF;}
	.st1{fill:#AFCDC9;}
	.st2{fill:#456AB2;}
	.st3{fill:#FFFFFF;}
	.st4{fill:#04233B;}
	.st5{clip-path:url(#SVGID_2_);}
	.st6{fill:#002F3E;}
	.st7{fill:#F15B3B;}
	.st8{fill:#0A141C;}
	.st9{opacity:0.1;}
	.st10{fill:none;stroke:#FFFFFF;stroke-miterlimit:10;}
	.st11{enable-background:new    ;}
</style>
<g>
	<g id="Group_1570" transform="translate(33.018 141.04)">
		<g id="Group_1547" transform="translate(56.123 128.361)">
			<g id="Path_987">
				<path class="st0" d="M57.7-84.08L40.27-81.7l-13.6-2.38C28.2-60.7,6.37-50,6.37-50h71.63C78.01-50,56.18-60.7,57.7-84.08z"/>
			</g>
			<g id="Path_988">
				<path class="st1" d="M40.27-81.7l-13.6-2.38c0.41,5.68-0.67,11.37-3.13,16.5l40.33,5.14c-4.54-6.26-6.72-13.92-6.17-21.64
					L40.27-81.7z"/>
			</g>
			<g id="Path_989">
				<path class="st2" d="M118.64-44.95c0,2.11-1.71,3.82-3.82,3.82h-144.6c-2.11,0-3.82-1.71-3.82-3.82l0,0
					c0-2.11,1.71-3.82,3.82-3.82h144.6C116.93-48.76,118.64-47.06,118.64-44.95z"/>
			</g>
			<g id="Path_990">
				<path class="st3" d="M81.68-48.76c0,2.11-1.71,3.82-3.82,3.82H7.57c-2.11,0-3.82-1.71-3.82-3.82l0,0c0-2.11,1.71-3.82,3.82-3.82
					h70.3C79.97-52.58,81.68-50.87,81.68-48.76z"/>
			</g>
		</g>
		<g id="Group_1569" transform="translate(0 0)">
			<g id="Path_991">
				<path class="st3" d="M182.79,58.29c-0.82,6.43-6.69,10.97-13.12,10.15L29.04,50.51c-6.43-0.82-10.97-6.69-10.15-13.12
					c0,0,0,0,0,0l9.71-76.15c0.82-6.43,6.69-10.97,13.12-10.15l140.62,17.93c6.43,0.82,10.97,6.69,10.15,13.12c0,0,0,0,0,0
					L182.79,58.29z"/>
			</g>
			<g id="Path_992">
				<path class="st2" d="M182.34-30.99L41.72-48.92c-6.43-0.82-12.3,3.73-13.12,10.15l-9.71,76.15c-0.02,0.16-0.02,0.33-0.04,0.49
					l163.85,20.9c0.03-0.16,0.07-0.32,0.09-0.48l9.71-76.15C193.32-24.29,188.77-30.16,182.34-30.99
					C182.35-30.99,182.34-30.99,182.34-30.99z"/>
			</g>
			<g id="Rectangle_1730">
				
					<rect x="69.72" y="-69.99" transform="matrix(0.127 -0.9919 0.9919 0.127 86.1698 110.9745)" class="st4" width="72.82" height="153.05"/>
			</g>
			<g id="Group_1549" transform="translate(59.193 44.786)">
				<g>
					<defs>
						
							<rect id="SVGID_1_" x="10.53" y="-114.77" transform="matrix(0.127 -0.9919 0.9919 0.127 78.917 13.162)" width="72.82" height="153.05"/>
					</defs>
					<clipPath id="SVGID_2_">
						<use xlink:href="#SVGID_1_"  style="overflow:visible;"/>
					</clipPath>
					<g id="Group_1548" transform="translate(0)" class="st5">
						<g id="Path_993">
							<path class="st6" d="M156.69,6.32l-4.67-6.82l-6.22,5.44l-4.67-6.82l-6.23,5.44l-4.67-6.82l-6.22,5.44l-4.67-6.82l-6.22,5.44
								l-4.67-6.82l-6.22,5.44l-4.67-6.82l-6.22,5.44L86.67-8.8l-6.22,5.44l-4.67-6.82l-6.22,5.44l-4.66-6.82l-6.22,5.44l-4.66-6.82
								l-6.22,5.44l-4.66-6.82L36.9-8.89l-4.66-6.82l-6.22,5.44l-4.67-6.82l-6.22,5.44l-4.67-6.82l-6.22,5.44l-4.67-6.82l-6.22,5.44
								l-4.67-6.82l-6.22,5.44l-4.67-6.82l-6.22,5.44l-4.67-6.82l-6.22,5.44l-4.66-6.82l-6.22,5.44l-4.67-6.82l-6.22,5.44
								l-4.67-6.82l-6.22,5.44l-4.67-6.82l-6.22,5.44l-4.66-6.82l-6.22,5.44l-4.67-6.82l-6.22,5.44l-3.68-5.39l-2.55,1.74l5.65,8.26
								l6.22-5.44l4.67,6.82l6.22-5.44l4.67,6.82l6.22-5.44l4.67,6.82l6.22-5.44l4.66,6.82l6.22-5.44l4.67,6.82l6.22-5.44l4.66,6.82
								l6.22-5.44l4.67,6.82l6.22-5.44l4.66,6.82l6.22-5.44l4.67,6.82l6.22-5.44l4.67,6.82l6.22-5.44l4.67,6.82l6.22-5.44l4.67,6.82
								l6.22-5.44l4.66,6.82l6.22-5.44l4.66,6.82l6.22-5.44l4.66,6.82l6.22-5.44l4.66,6.82l6.22-5.44l4.67,6.82l6.22-5.44l4.67,6.82
								l6.22-5.44l4.67,6.82l6.23-5.44l4.67,6.82l6.22-5.44l4.67,6.82l6.22-5.44l4.67,6.82l6.22-5.44l4.67,6.82l6.23-5.44l4.67,6.82
								l7.54-6.58l-2.03-2.33L156.69,6.32z M157.95-3.58l-4.67-6.82l-6.22,5.44l-4.67-6.82l-6.23,5.44l-4.67-6.82l-6.22,5.44
								l-4.67-6.82l-6.22,5.44l-4.67-6.82l-6.22,5.44l-4.67-6.82l-6.22,5.44l-4.67-6.82l-6.22,5.44l-4.66-6.82l-6.22,5.44
								l-4.66-6.82l-6.22,5.44l-4.66-6.82l-6.22,5.44l-4.66-6.82l-6.22,5.44l-4.66-6.82l-6.22,5.44L22.61-27l-6.22,5.44l-4.67-6.82
								L5.5-22.94l-4.67-6.82l-6.22,5.44l-4.67-6.82l-6.22,5.44l-4.66-6.83l-6.22,5.44l-4.67-6.82l-6.22,5.44l-4.66-6.82l-6.23,5.44
								l-4.67-6.82l-6.22,5.44l-4.66-6.82l-6.22,5.44l-4.67-6.82L-81.6-34l-4.66-6.82l-6.22,5.44l-4.67-6.82l-6.22,5.44l-3.68-5.39
								l-2.55,1.74l5.65,8.26l6.22-5.44l4.67,6.82l6.22-5.44l4.66,6.82l6.22-5.44L-71.3-28l6.22-5.44l4.66,6.82l6.22-5.44l4.67,6.82
								l6.22-5.44l4.66,6.82l6.22-5.44l4.67,6.82l6.22-5.44l4.67,6.82l6.22-5.44l4.67,6.82l6.22-5.44l4.67,6.82l6.22-5.44l4.67,6.82
								l6.22-5.44l4.67,6.82L32.91-21l4.66,6.82l6.22-5.44l4.66,6.82l6.22-5.44l4.66,6.82l6.22-5.44l4.66,6.82l6.22-5.44l4.66,6.82
								l6.22-5.44l4.67,6.82l6.22-5.44l4.67,6.82l6.22-5.44l4.67,6.82l6.22-5.44l4.67,6.82l6.22-5.44l4.67,6.82l6.23-5.44l4.67,6.82
								l6.23-5.44l4.67,6.82l7.54-6.58l-2.03-2.33L157.95-3.58z M159.21-13.48l-4.67-6.82l-6.22,5.44l-4.67-6.82l-6.23,5.44
								l-4.67-6.82l-6.22,5.44l-4.67-6.82l-6.22,5.44l-4.67-6.82l-6.22,5.44l-4.67-6.82l-6.22,5.44l-4.67-6.82l-6.22,5.44
								l-4.67-6.82l-6.22,5.44l-4.66-6.82l-6.22,5.44l-4.66-6.82l-6.22,5.44l-4.66-6.82l-6.22,5.44l-4.66-6.82l-6.22,5.44
								l-4.67-6.82l-6.22,5.44l-4.67-6.82l-6.22,5.44l-4.67-6.82l-6.22,5.44l-4.67-6.82l-6.22,5.44l-4.66-6.82l-6.22,5.44
								l-4.67-6.82l-6.22,5.44l-4.66-6.82l-6.22,5.44l-4.67-6.83l-6.22,5.44l-4.66-6.82l-6.22,5.44l-4.67-6.82l-6.22,5.44L-85-50.73
								l-6.22,5.44l-4.67-6.82l-6.22,5.44l-3.68-5.38l-2.55,1.74l5.65,8.26l6.22-5.44l4.67,6.82l6.22-5.44l4.66,6.82l6.22-5.44
								l4.66,6.82l6.22-5.44l4.66,6.82l6.22-5.44l4.67,6.82l6.22-5.44l4.66,6.82l6.22-5.44l4.66,6.82l6.22-5.44l4.66,6.82l6.22-5.44
								l4.67,6.82l6.22-5.44l4.67,6.82l6.22-5.44l4.67,6.82l6.22-5.44l4.67,6.82l6.22-5.44l4.66,6.82l6.22-5.44l4.66,6.82l6.22-5.44
								l4.66,6.82l6.22-5.44l4.66,6.82l6.22-5.44l4.66,6.82l6.22-5.44l4.67,6.82l6.22-5.44l4.67,6.82l6.22-5.44l4.67,6.82l6.22-5.44
								l4.67,6.82l6.22-5.44l4.67,6.82l6.23-5.44l4.67,6.82l6.23-5.44l4.67,6.82l7.54-6.58l-2.03-2.33L159.21-13.48z M154.18,26.14
								l-4.67-6.82l-6.23,5.44l-4.67-6.82l-6.23,5.44l-4.67-6.82l-6.22,5.44l-4.67-6.82l-6.22,5.44l-4.67-6.82l-6.22,5.44
								l-4.67-6.82l-6.22,5.44l-4.67-6.82l-6.22,5.44l-4.67-6.82l-6.22,5.44l-4.66-6.82l-6.22,5.44l-4.66-6.82l-6.22,5.44
								l-4.66-6.82l-6.22,5.44L29.72,4.1L23.5,9.54l-4.67-6.82l-6.22,5.44L7.95,1.33L1.72,6.78l-4.67-6.82l-6.22,5.44l-4.67-6.82
								l-6.22,5.44l-4.67-6.82l-6.22,5.43l-4.66-6.82l-6.22,5.44l-4.66-6.82l-6.22,5.44l-4.66-6.82l-6.22,5.44l-4.66-6.82
								l-6.22,5.44l-4.67-6.82l-6.22,5.44l-4.67-6.83l-6.22,5.44l-4.67-6.82l-6.22,5.44l-3.68-5.39l-2.55,1.74l5.65,8.26l6.22-5.44
								l4.67,6.82l6.22-5.44l4.66,6.82l6.22-5.44l4.67,6.82l6.22-5.44l4.67,6.82l6.22-5.44l4.67,6.82l6.22-5.44l4.66,6.82l6.23-5.43
								l4.67,6.82l6.22-5.44l4.66,6.82l6.22-5.44L-9.75,10l6.22-5.44l4.67,6.82l6.22-5.44l4.67,6.82l6.22-5.44l4.67,6.82l6.22-5.44
								l4.66,6.82l6.22-5.44l4.66,6.82l6.23-5.44l4.66,6.82l6.22-5.44l4.66,6.82l6.22-5.44l4.67,6.82l6.22-5.44l4.67,6.82l6.22-5.44
								l4.67,6.82l6.22-5.44l4.67,6.82l6.22-5.44l4.67,6.82l6.22-5.44l4.67,6.82l6.23-5.44l4.67,6.82l6.23-5.44l4.67,6.82l7.54-6.58
								l-2.03-2.33L154.18,26.14z M-88.93-106.92l4.67,6.82l6.22-5.44l4.66,6.82l6.22-5.44l4.67,6.82l6.22-5.44l4.66,6.82l6.22-5.44
								l4.67,6.82l6.22-5.44l4.66,6.82l6.22-5.44l4.67,6.82l6.22-5.44l4.66,6.82l6.22-5.44l4.67,6.82l6.22-5.44l4.67,6.82l6.22-5.44
								l4.67,6.82l6.22-5.44l4.67,6.82l6.22-5.44l4.66,6.82l6.22-5.44l4.66,6.82l6.22-5.44l4.66,6.82l6.22-5.44l4.66,6.82l6.22-5.44
								l4.66,6.82l6.22-5.44l4.67,6.82l6.22-5.44l4.67,6.82l6.22-5.44l4.67,6.82l6.22-5.44l4.67,6.82l6.22-5.44l4.67,6.82l6.23-5.44
								l4.67,6.82l6.23-5.44l4.67,6.82l7.54-6.58l-2.03-2.33l-4.92,4.3l-4.67-6.82l-6.22,5.44l-4.67-6.82l-6.23,5.44l-4.67-6.82
								l-6.22,5.44l-4.67-6.82l-6.22,5.44l-4.67-6.82l-6.22,5.44l-4.67-6.82l-6.23,5.44l-4.67-6.82l-6.22,5.44l-4.66-6.82
								l-6.22,5.44l-4.66-6.82l-6.22,5.44l-4.66-6.82l-6.22,5.44l-4.66-6.82l-6.23,5.44l-4.66-6.82l-6.22,5.44l-4.67-6.82
								l-6.22,5.44l-4.67-6.82l-6.22,5.44l-4.67-6.82l-6.22,5.44l-4.67-6.82l-6.22,5.44l-4.67-6.82l-6.22,5.44l-4.66-6.82
								l-6.22,5.44l-4.66-6.82l-6.22,5.44l-4.67-6.82l-6.22,5.44l-4.66-6.82l-6.22,5.44l-4.67-6.82l-6.22,5.44l-4.66-6.82
								l-6.22,5.44l-4.67-6.82l-6.22,5.44l-3.68-5.38l-2.55,1.74l5.65,8.26L-88.93-106.92z M155.44,16.22l-4.68-6.82l-6.22,5.44
								l-4.67-6.82l-6.23,5.44l-4.67-6.82l-6.22,5.44l-4.67-6.82l-6.22,5.44l-4.67-6.82l-6.22,5.44l-4.67-6.82l-6.22,5.44
								l-4.67-6.82l-6.22,5.44l-4.67-6.82L68.3,5.16l-4.66-6.82l-6.22,5.44l-4.66-6.82L46.53,2.4l-4.66-6.82l-6.22,5.44l-4.66-6.82
								l-6.22,5.44l-4.67-6.82l-6.22,5.44L9.2-8.57L2.98-3.13l-4.67-6.82l-6.22,5.44l-4.67-6.82L-18.8-5.9l-4.67-6.82l-6.22,5.44
								l-4.67-6.82l-6.22,5.44l-4.67-6.82l-6.22,5.44l-4.67-6.83l-6.22,5.44l-4.66-6.82l-6.22,5.44l-4.67-6.82l-6.22,5.44
								l-4.66-6.82L-95-15.58l-4.67-6.82l-6.22,5.44l-3.68-5.39l-2.55,1.75l5.65,8.26l6.22-5.44l4.67,6.82l6.22-5.44l4.66,6.82
								l6.22-5.44l4.67,6.82l6.22-5.44l4.66,6.82l6.22-5.44l4.67,6.82l6.22-5.44l4.66,6.82l6.22-5.44l4.66,6.82l6.22-5.44l4.67,6.83
								l6.22-5.44l4.67,6.82l6.22-5.44l4.67,6.82l6.22-5.44l4.67,6.82l6.22-5.44l4.67,6.82l6.22-5.44l4.66,6.82l6.22-5.44l4.66,6.82
								l6.22-5.44l4.66,6.82l6.22-5.44l4.66,6.82l6.22-5.44l4.67,6.82l6.22-5.44l4.67,6.82l6.22-5.44l4.67,6.82l6.22-5.44l4.67,6.82
								l6.22-5.44l4.67,6.82l6.22-5.44l4.67,6.82l6.23-5.44l4.67,6.82l6.23-5.44l4.67,6.82l7.54-6.58l-2.03-2.33L155.44,16.22z
								 M165.5-63.01l-4.67-6.82l-6.22,5.44l-4.67-6.82l-6.23,5.44l-4.67-6.82l-6.22,5.44l-4.67-6.81l-6.22,5.44l-4.67-6.82
								l-6.22,5.44l-4.67-6.82l-6.22,5.44l-4.67-6.82l-6.22,5.44l-4.66-6.82l-6.23,5.43l-4.66-6.82l-6.22,5.44l-4.66-6.82
								l-6.22,5.44l-4.66-6.82l-6.22,5.44l-4.66-6.82l-6.22,5.44l-4.67-6.82l-6.22,5.44l-4.67-6.82l-6.22,5.44l-4.67-6.82
								l-6.22,5.44l-4.67-6.82l-6.22,5.44l-4.67-6.82l-6.22,5.44l-4.66-6.82l-6.22,5.44l-4.66-6.82l-6.22,5.44l-4.67-6.82
								l-6.22,5.44l-4.66-6.82l-6.22,5.44l-4.67-6.82l-6.22,5.44l-4.66-6.82l-6.22,5.44l-4.67-6.82l-6.22,5.44l-3.68-5.39
								l-2.55,1.74l5.65,8.26l6.22-5.44l4.67,6.82l6.22-5.44l4.66,6.82l6.22-5.44l4.67,6.82l6.22-5.44l4.66,6.82l6.22-5.44
								l4.67,6.82l6.22-5.44l4.67,6.82l6.22-5.44l4.67,6.82l6.22-5.44l4.66,6.82l6.22-5.44l4.67,6.82l6.22-5.44l4.67,6.82l6.22-5.44
								l4.67,6.82l6.22-5.44l4.67,6.82l6.22-5.44l4.66,6.82l6.22-5.44L56-72.22l6.22-5.44l4.66,6.82l6.22-5.44l4.66,6.82L84-74.9
								l4.67,6.82l6.22-5.44l4.67,6.82l6.22-5.44l4.67,6.82l6.22-5.44l4.67,6.82l6.22-5.44l4.67,6.82l6.22-5.44l4.67,6.82l6.23-5.44
								l4.67,6.82l6.23-5.44l4.67,6.82l7.54-6.58l-2.03-2.33L165.5-63.01z M164.24-53.11l-4.67-6.82l-6.22,5.44l-4.67-6.82
								l-6.23,5.44l-4.67-6.82l-6.22,5.44l-4.67-6.82l-6.22,5.44L116-65.47l-6.22,5.44l-4.67-6.82l-6.22,5.44l-4.67-6.82l-6.22,5.44
								l-4.67-6.82l-6.22,5.44L72.44-71l-6.22,5.44l-4.66-6.81l-6.22,5.44l-4.66-6.82l-6.22,5.44l-4.66-6.82l-6.22,5.44l-4.67-6.82
								l-6.22,5.44l-4.67-6.82l-6.22,5.44l-4.67-6.82L0.9-73.85l-4.67-6.82l-6.22,5.44l-4.67-6.82l-6.22,5.44l-4.67-6.82l-6.22,5.44
								l-4.66-6.82l-6.22,5.44l-4.67-6.82l-6.23,5.44l-4.66-6.82l-6.22,5.44l-4.67-6.82l-6.22,5.44l-4.66-6.82l-6.22,5.44
								l-4.67-6.82l-6.22,5.44l-3.68-5.38l-2.55,1.74l5.65,8.26l6.22-5.44l4.67,6.82l6.22-5.44l4.66,6.82l6.22-5.44l4.67,6.82
								l6.22-5.44l4.66,6.82l6.22-5.44l4.67,6.82l6.22-5.44l4.66,6.82l6.22-5.44l4.67,6.82l6.22-5.44l4.67,6.82l6.22-5.44l4.67,6.82
								l6.22-5.44l4.67,6.82l6.22-5.44l4.67,6.82l6.22-5.44l4.67,6.82l6.22-5.44l4.66,6.82l6.22-5.44l4.66,6.82l6.22-5.44l4.66,6.82
								l6.22-5.44l4.66,6.82l6.22-5.44l4.67,6.82l6.22-5.44l4.67,6.82l6.22-5.44l4.67,6.82l6.22-5.44l4.67,6.82l6.22-5.44l4.67,6.82
								l6.22-5.44l4.67,6.82l6.23-5.44l4.67,6.82l6.23-5.44l4.67,6.82l7.54-6.58l-2.03-2.33L164.24-53.11z M162.98-43.21l-4.67-6.82
								l-6.23,5.44l-4.67-6.82l-6.23,5.44l-4.67-6.82l-6.22,5.44l-4.67-6.82l-6.22,5.44l-4.67-6.82l-6.22,5.44l-4.67-6.82
								l-6.22,5.44l-4.67-6.81l-6.22,5.44l-4.67-6.82l-6.22,5.44l-4.66-6.82l-6.23,5.44l-4.66-6.82l-6.22,5.44l-4.66-6.82
								l-6.22,5.44l-4.66-6.82l-6.22,5.44l-4.67-6.82l-6.22,5.44L16.75-68l-6.22,5.44l-4.66-6.82l-6.22,5.44l-4.67-6.82l-6.22,5.44
								l-4.67-6.82l-6.22,5.43l-4.67-6.82l-6.22,5.44l-4.67-6.82l-6.22,5.44l-4.67-6.82l-6.22,5.44l-4.66-6.82l-6.22,5.44
								l-4.67-6.82l-6.22,5.44l-4.66-6.82L-87.45-75l-4.67-6.82l-6.22,5.44l-3.68-5.38l-2.55,1.74l5.65,8.26l6.22-5.44l4.67,6.82
								l6.22-5.44l4.66,6.82l6.22-5.44l4.67,6.82l6.22-5.44l4.67,6.82l6.22-5.44l4.67,6.82l6.22-5.44l4.66,6.82l6.22-5.44l4.66,6.82
								l6.22-5.44l4.67,6.82l6.22-5.44l4.67,6.82l6.22-5.44l4.67,6.82l6.22-5.44l4.67,6.82L27.05-62l4.67,6.82l6.22-5.44l4.66,6.82
								l6.22-5.44l4.66,6.82l6.22-5.44l4.66,6.82l6.22-5.44l4.66,6.82l6.22-5.44l4.67,6.82l6.22-5.44l4.67,6.82l6.22-5.44l4.67,6.82
								l6.22-5.44l4.67,6.82l6.22-5.44l4.67,6.82l6.22-5.44l4.67,6.82l6.23-5.44l4.67,6.82l6.23-5.44l4.67,6.82l7.54-6.58
								l-2.03-2.33L162.98-43.21z M161.72-33.31l-4.67-6.82l-6.22,5.44l-4.67-6.82l-6.22,5.44l-4.67-6.82l-6.22,5.44l-4.67-6.82
								l-6.22,5.44l-4.67-6.82l-6.22,5.44l-4.67-6.82l-6.22,5.44l-4.67-6.82l-6.22,5.46l-4.66-6.82l-6.22,5.44l-4.66-6.82
								l-6.22,5.44l-4.66-6.82l-6.22,5.44l-4.66-6.82l-6.22,5.44l-4.66-6.82l-6.22,5.44l-4.67-6.82l-6.22,5.44l-4.67-6.82
								l-6.22,5.44l-4.67-6.82l-6.22,5.44l-4.67-6.82l-6.22,5.44l-4.67-6.82l-6.22,5.44l-4.66-6.82l-6.22,5.44l-4.66-6.82
								l-6.22,5.44l-4.67-6.82l-6.22,5.44l-4.67-6.83l-6.22,5.45l-4.67-6.82l-6.22,5.44l-4.66-6.82l-6.22,5.44l-4.67-6.82
								l-6.22,5.44l-3.68-5.38l-2.55,1.74l5.65,8.26l6.22-5.44l4.67,6.82l6.22-5.44l4.66,6.82l6.22-5.44l4.67,6.82l6.22-5.44
								l4.67,6.82l6.22-5.44l4.67,6.82l6.22-5.44l4.67,6.82l6.22-5.44l4.67,6.82l6.22-5.44l4.67,6.82l6.22-5.44l4.67,6.82l6.22-5.44
								l4.67,6.82l6.22-5.44l4.67,6.82l6.22-5.44l4.67,6.82l6.22-5.44l4.66,6.82l6.22-5.44l4.66,6.82l6.22-5.44l4.66,6.82l6.22-5.44
								L74-39.75l6.22-5.44l4.67,6.82l6.22-5.44l4.67,6.83l6.22-5.44l4.67,6.82l6.22-5.44l4.67,6.82l6.22-5.44l4.67,6.82l6.22-5.44
								l4.67,6.82l6.23-5.44l4.67,6.82l6.23-5.44l4.67,6.82l7.54-6.58l-2.03-2.33L161.72-33.31z M160.47-23.41l-4.67-6.82
								l-6.22,5.44l-4.67-6.82l-6.23,5.44l-4.67-6.8l-6.22,5.44l-4.67-6.82l-6.22,5.44l-4.67-6.82L106-30.3l-4.67-6.82l-6.22,5.44
								l-4.67-6.82l-6.22,5.44l-4.67-6.82l-6.22,5.44l-4.66-6.82l-6.22,5.44l-4.66-6.82l-6.22,5.44l-4.66-6.82l-6.22,5.44
								l-4.66-6.82l-6.22,5.44l-4.67-6.82l-6.22,5.44l-4.67-6.82l-6.22,5.44l-4.67-6.82l-6.22,5.44l-4.67-6.82l-6.22,5.44
								l-4.66-6.82l-6.22,5.44l-4.67-6.82l-6.23,5.44l-4.66-6.82l-6.22,5.44l-4.67-6.82l-6.22,5.44l-4.66-6.82l-6.22,5.44
								l-4.67-6.82l-6.22,5.44l-4.66-6.82l-6.22,5.44l-4.67-6.82l-6.22,5.43l-3.68-5.38l-2.55,1.74l5.65,8.26l6.22-5.44l4.67,6.82
								l6.22-5.44l4.66,6.82l6.22-5.44l4.67,6.82l6.22-5.44l4.66,6.82l6.22-5.44l4.67,6.82l6.22-5.44l4.67,6.82l6.22-5.44l4.67,6.82
								l6.22-5.44l4.67,6.82l6.22-5.44l4.67,6.82l6.22-5.44l4.67,6.82l6.22-5.44l4.67,6.82l6.22-5.44l4.67,6.82l6.22-5.44l4.66,6.82
								l6.22-5.44l4.66,6.82l6.22-5.44l4.66,6.82l6.22-5.44l4.66,6.82l6.22-5.44l4.66,6.82l6.22-5.44l4.67,6.82l6.22-5.44l4.67,6.82
								l6.22-5.44l4.67,6.82l6.22-5.44l4.67,6.82l6.22-5.44l4.67,6.82l6.23-5.44l4.67,6.82l6.23-5.44l4.67,6.82l7.54-6.58
								l-2.03-2.33L160.47-23.41z"/>
						</g>
					</g>
				</g>
			</g>
			<g id="Group_1552" transform="translate(85.077 61.533)">
				<g id="Group_1550">
					<g id="Path_994">
						<path class="st7" d="M-28.24-54.45c-1.45,1.12-3.54,0.85-4.66-0.6c0,0,0,0,0,0l0,0c-1.12-1.45-0.86-3.53,0.59-4.66L-5.6-80.37
							c1.45-1.12,3.53-0.85,4.65,0.6c0,0,0,0,0,0l0,0c1.12,1.45,0.86,3.53-0.59,4.66L-28.24-54.45z"/>
					</g>
					<g id="Path_995">
						<path class="st7" d="M-3.96-56.08c1.12,1.45,0.86,3.54-0.6,4.66l0,0c-1.45,1.12-3.53,0.86-4.66-0.59l-20.66-26.71
							c-1.12-1.45-0.86-3.53,0.59-4.66l0,0c1.45-1.12,3.54-0.86,4.66,0.59c0,0,0,0,0,0L-3.96-56.08z"/>
					</g>
				</g>
				<g id="Group_1551" transform="translate(77.79 9.922)">
					<g id="Path_996">
						<path class="st7" d="M-28.24-54.45c-1.45,1.12-3.53,0.86-4.66-0.59c0,0,0,0,0,0l0,0c-1.12-1.45-0.86-3.53,0.59-4.66
							L-5.6-80.37c1.45-1.12,3.53-0.86,4.66,0.59c0,0,0,0,0,0l0,0c1.12,1.45,0.86,3.53-0.59,4.66c0,0,0,0,0,0L-28.24-54.45z"/>
					</g>
					<g id="Path_997">
						<path class="st7" d="M-3.96-56.09c1.12,1.45,0.86,3.53-0.59,4.66c0,0,0,0,0,0l0,0c-1.45,1.12-3.53,0.86-4.66-0.59
							l-20.67-26.71c-1.12-1.45-0.85-3.53,0.6-4.66l0,0c1.45-1.12,3.53-0.86,4.66,0.59c0,0,0,0,0,0L-3.96-56.09z"/>
					</g>
				</g>
			</g>
			<g id="Group_1553" transform="translate(116.941 99.821)">
				<g id="Path_998">
					<path class="st7" d="M0.45-59.16c-2.05-0.26-3.49-2.13-3.23-4.17c0,0,0,0,0,0c0.82-6.45-3.74-12.35-10.2-13.18
						s-12.35,3.74-13.18,10.2c-0.26,2.05-2.13,3.49-4.18,3.23s-3.49-2.13-3.23-4.18c1.34-10.55,10.98-18,21.53-16.66
						c10.55,1.34,18,10.98,16.66,21.53C4.37-60.35,2.5-58.9,0.45-59.16C0.45-59.16,0.45-59.16,0.45-59.16z"/>
				</g>
			</g>
			<g id="Path_999">
				<path class="st4" d="M118.6-33.45c-0.1,0.81-0.84,1.38-1.65,1.28l-10.85-1.38c-0.81-0.1-1.38-0.84-1.28-1.65l0,0
					c0.1-0.81,0.84-1.38,1.65-1.28l10.85,1.38C118.13-35,118.7-34.26,118.6-33.45C118.6-33.45,118.6-33.45,118.6-33.45L118.6-33.45z
					"/>
			</g>
			<g id="Path_1000">
				<path class="st8" d="M105.6-35.12c-0.05,0.44,0.26,0.84,0.7,0.89c0.44,0.05,0.84-0.26,0.89-0.7c0.05-0.43-0.26-0.83-0.69-0.89
					c-0.44-0.06-0.84,0.25-0.9,0.69C105.6-35.13,105.6-35.13,105.6-35.12z"/>
			</g>
			<g id="Group_1554" transform="translate(53.546 38.215)" class="st9">
				<g id="Path_1001">
					<path class="st3" d="M-28-53.03l-5.04,39.55l84.73-65.56l-39.55-5.04L-28-53.03z"/>
				</g>
				<g id="Path_1002">
					<path class="st3" d="M132.3-68.18c-1.11-0.52-2.29-0.87-3.51-1.02l-56.27-7.18L-33.59,5.73c1.72,3.59,5.14,6.06,9.08,6.56
						l45.34,5.78L132.3-68.18z"/>
				</g>
				<g id="Path_1003">
					<path class="st3" d="M136.42-36.26l0.96-7.55L52.23,22.08l7.55,0.96L136.42-36.26z"/>
				</g>
			</g>
			<g id="Group_1561" transform="translate(205.755)">
				<g id="Group_1555" transform="translate(21.694)">
					<g id="Path_1005">
						<path class="st3" d="M14.02-53.74c-0.13-0.17-0.26-0.32-0.4-0.48c3.57-5.39,2.09-12.66-3.3-16.23
							C7.21-72.5,3.3-72.96-0.2-71.66c-1.4-3.58-5.43-5.35-9.01-3.95s-5.35,5.43-3.95,9.01c0.9,2.31,2.96,3.96,5.41,4.34
							c-0.84,6.13,3.25,11.86,9.32,13.06c0.16,3.84,3.4,6.82,7.24,6.66c3.84-0.16,6.82-3.4,6.66-7.24
							C15.41-51.22,14.9-52.61,14.02-53.74L14.02-53.74z"/>
					</g>
					<g id="Path_1006">
						<path class="st3" d="M16.63-56.69c-1.11,0.86-1.32,2.46-0.46,3.58c0.86,1.11,2.46,1.32,3.58,0.46
							c1.11-0.86,1.32-2.46,0.46-3.58c0,0,0,0,0,0C19.35-57.35,17.75-57.55,16.63-56.69z"/>
					</g>
					<g id="Path_1007">
						<path class="st3" d="M-0.54-83.02c-2.22,1.72-2.62,4.9-0.91,7.12c1.72,2.22,4.9,2.62,7.12,0.91c2.22-1.72,2.62-4.9,0.91-7.12
							C4.86-84.33,1.67-84.74-0.54-83.02C-0.54-83.02-0.54-83.02-0.54-83.02z"/>
					</g>
					<g id="Path_1008">
						<path class="st3" d="M-11.84-63.8c-1.51,1.17-1.79,3.34-0.62,4.85c1.17,1.51,3.34,1.79,4.85,0.62
							c1.51-1.17,1.79-3.34,0.62-4.85C-8.15-64.69-10.33-64.97-11.84-63.8C-11.84-63.8-11.84-63.8-11.84-63.8z"/>
					</g>
					<g id="Path_1009">
						<path class="st3" d="M0.86-48.89c-1.65,1.28-1.96,3.65-0.68,5.3s3.65,1.96,5.3,0.68c1.65-1.28,1.96-3.65,0.68-5.3c0,0,0,0,0,0
							C4.88-49.86,2.51-50.17,0.86-48.89z"/>
					</g>
					<g id="Path_1010">
						<path class="st3" d="M-3.04-46.77c-0.81,0.63-0.96,1.8-0.33,2.61c0.63,0.81,1.8,0.96,2.61,0.33c0.81-0.63,0.96-1.79,0.33-2.61
							C-1.06-47.25-2.23-47.4-3.04-46.77C-3.04-46.77-3.04-46.77-3.04-46.77z"/>
					</g>
					<g id="Path_1011">
						<path class="st3" d="M6.54-78.87c-1.11,0.86-1.31,2.45-0.46,3.56S8.54-74,9.64-74.86c1.11-0.86,1.31-2.45,0.46-3.56
							c0,0,0,0,0,0C9.24-79.53,7.65-79.73,6.54-78.87z"/>
					</g>
					<g id="Path_1012">
						<path class="st3" d="M13.01-73.79c-0.66,0.51-0.79,1.47-0.27,2.13c0.51,0.66,1.47,0.79,2.13,0.27
							c0.66-0.51,0.79-1.47,0.27-2.13c0,0,0,0,0,0C14.63-74.19,13.68-74.31,13.01-73.79z"/>
					</g>
					<g id="Path_1013">
						<path class="st3" d="M19.39-53.13c-0.48,0.37-0.57,1.06-0.2,1.54c0.37,0.48,1.06,0.57,1.54,0.2c0.48-0.37,0.57-1.06,0.2-1.54
							C20.56-53.41,19.87-53.5,19.39-53.13C19.39-53.13,19.39-53.13,19.39-53.13z"/>
					</g>
					<g id="Path_1014">
						<path class="st3" d="M-6.99-63.18l-22.87,26.4l6.15-2.84l-9.89,11.07L4.27-48.64l-6.42-8.29L-6.99-63.18z"/>
					</g>
				</g>
				<g id="Group_1556" transform="translate(0 27.058)">
					<g id="Path_1015">
						<path class="st3" d="M-22.76-62.61c-3.42-0.43-6.52-2.2-8.63-4.93c-3.56-4.59-2.71-11.2,1.88-14.76c0,0,0,0,0,0
							c3.74-2.89,9.11-2.2,12,1.53c2.36,3.05,1.8,7.43-1.24,9.78c0,0,0,0,0,0c-2.5,1.93-6.09,1.47-8.02-1.02
							c-1.59-2.06-1.21-5.01,0.84-6.6c1.7-1.32,4.15-1.01,5.47,0.7c0,0,0,0,0,0c0.24,0.29,0.2,0.71-0.09,0.95s-0.71,0.2-0.95-0.09
							c-0.01-0.01-0.02-0.02-0.03-0.04c-0.87-1.11-2.47-1.32-3.58-0.46c-1.47,1.14-1.73,3.25-0.6,4.71
							c1.48,1.91,4.22,2.26,6.13,0.78c2.46-1.9,2.91-5.44,1.01-7.9c-2.44-3.14-6.96-3.72-10.11-1.29c-4.01,3.1-4.74,8.86-1.65,12.87
							c0,0,0,0,0,0.01c3.94,5.08,11.24,6.01,16.33,2.08c0.29-0.23,0.71-0.19,0.95,0.1s0.19,0.71-0.1,0.95
							c-0.01,0.01-0.01,0.01-0.02,0.02C-15.89-63.1-19.35-62.16-22.76-62.61z"/>
					</g>
				</g>
				<g id="Group_1557" transform="translate(36.768 50.272)">
					<g id="Path_1016">
						<path class="st3" d="M-28.66-74.3c-1.56-0.19-2.97-1-3.93-2.24c-1.62-2.09-1.24-5.1,0.85-6.72c0,0,0,0,0.01,0
							c1.7-1.31,4.15-1,5.46,0.7c1.07,1.39,0.82,3.38-0.57,4.46c-1.14,0.88-2.77,0.67-3.65-0.47c-0.72-0.94-0.55-2.28,0.38-3.01
							c0.77-0.6,1.89-0.46,2.49,0.32c0,0,0,0,0,0c0.1,0.13,0.08,0.33-0.05,0.43s-0.33,0.08-0.43-0.05c-0.39-0.51-1.12-0.6-1.63-0.21
							c-0.67,0.52-0.79,1.48-0.27,2.15c0.68,0.86,1.92,1.02,2.79,0.36c1.12-0.87,1.33-2.48,0.46-3.6c0,0,0,0,0,0
							c-1.11-1.43-3.17-1.69-4.6-0.59c-1.83,1.41-2.16,4.04-0.75,5.86c0,0,0,0,0,0c1.79,2.31,5.12,2.74,7.43,0.95
							c0.13-0.1,0.33-0.08,0.43,0.05c0.1,0.13,0.08,0.33-0.05,0.43C-25.53-74.53-27.1-74.1-28.66-74.3z"/>
					</g>
				</g>
				<g id="Group_1558" transform="translate(24.672 61.219)">
					<g id="Path_1017">
						<path class="st3" d="M-23.84-65.46c-0.07,0.59-0.62,1.02-1.21,0.94c0,0,0,0,0,0l0,0c-0.6-0.08-1.02-0.62-0.94-1.22l2.22-17.4
							c0.08-0.6,0.62-1.02,1.22-0.94l0,0c0.59,0.08,1.02,0.62,0.94,1.21c0,0,0,0,0,0L-23.84-65.46z"/>
					</g>
					<g id="Path_1018">
						<path class="st3" d="M-14.97-74.27c0.6,0.08,1.02,0.62,0.94,1.22c0,0,0,0,0,0l0,0c-0.08,0.6-0.62,1.02-1.21,0.94c0,0,0,0,0,0
							l-17.4-2.22c-0.6-0.08-1.02-0.62-0.94-1.22l0,0c0.08-0.6,0.62-1.02,1.21-0.94L-14.97-74.27z"/>
					</g>
				</g>
				<g id="Group_1559" transform="translate(46.689 61.021)">
					<g id="Path_1019">
						<path class="st3" d="M-27.25-77.72c0.16,0.21,0.12,0.51-0.09,0.68l0,0c-0.21,0.16-0.52,0.13-0.68-0.09l-4.77-6.17
							c-0.16-0.21-0.13-0.51,0.09-0.68c0,0,0,0,0,0l0,0c0.21-0.16,0.51-0.12,0.68,0.09c0,0,0,0,0,0L-27.25-77.72z"/>
					</g>
					<g id="Path_1020">
						<path class="st3" d="M-27.23-83.28c0.21-0.16,0.51-0.12,0.68,0.09c0,0,0,0,0,0l0,0c0.16,0.21,0.13,0.51-0.09,0.68c0,0,0,0,0,0
							l-6.17,4.77c-0.21,0.16-0.51,0.12-0.68-0.09c0,0,0,0,0,0l0,0c-0.16-0.21-0.13-0.51,0.08-0.68c0,0,0,0,0,0L-27.23-83.28z"/>
					</g>
				</g>
				<g id="Group_1560" transform="translate(25.616 30.878)">
					<g id="Path_1021">
						<path class="st3" d="M-27.25-77.72c0.16,0.21,0.13,0.51-0.09,0.68c0,0,0,0,0,0l0,0c-0.21,0.16-0.51,0.12-0.68-0.09l-4.77-6.17
							c-0.16-0.21-0.12-0.51,0.09-0.68l0,0c0.21-0.16,0.52-0.12,0.68,0.09c0,0,0,0,0,0L-27.25-77.72z"/>
					</g>
					<g id="Path_1022">
						<path class="st3" d="M-27.23-83.28c0.21-0.16,0.52-0.13,0.68,0.09l0,0c0.16,0.21,0.12,0.51-0.09,0.68c0,0,0,0,0,0l-6.17,4.77
							c-0.21,0.16-0.52,0.13-0.68-0.09l0,0c-0.16-0.21-0.12-0.51,0.09-0.68L-27.23-83.28z"/>
					</g>
				</g>
			</g>
			<g id="Group_1568" transform="translate(0 121.953)">
				<g id="Group_1562" transform="translate(0 19.329)">
					<g id="Path_1023">
						<path class="st3" d="M-13.74-54.45c-0.1-0.12-0.18-0.25-0.27-0.38c-4.56,1.57-9.52-0.86-11.09-5.41
							c-0.9-2.63-0.5-5.53,1.09-7.81c-2.32-1.68-2.84-4.92-1.16-7.23c1.68-2.32,4.92-2.84,7.23-1.16c1.49,1.08,2.3,2.88,2.12,4.71
							c4.58,0.54,7.95,4.56,7.68,9.16c2.74,0.83,4.28,3.73,3.45,6.46c-0.83,2.74-3.73,4.28-6.46,3.45
							C-12.18-52.98-13.08-53.6-13.74-54.45L-13.74-54.45z"/>
					</g>
					<g id="Path_1024">
						<path class="st3" d="M-16.35-53.12c0.83-0.64,2.02-0.49,2.67,0.34c0.64,0.83,0.49,2.02-0.34,2.67
							c-0.83,0.64-2.02,0.49-2.66-0.34C-17.33-51.28-17.18-52.48-16.35-53.12C-16.35-53.12-16.35-53.12-16.35-53.12z"/>
					</g>
					<g id="Path_1025">
						<path class="st3" d="M-32.12-70.43c1.65-1.28,4.03-0.98,5.31,0.67s0.98,4.03-0.67,5.31c-1.65,1.28-4.03,0.98-5.31-0.67
							c0,0,0,0,0-0.01C-34.08-66.79-33.77-69.16-32.12-70.43z"/>
					</g>
					<g id="Path_1026">
						<path class="st3" d="M-16.15-74.99c1.13-0.87,2.74-0.66,3.62,0.46s0.66,2.74-0.46,3.62c-1.13,0.87-2.74,0.66-3.62-0.46
							c0,0,0,0,0,0C-17.49-72.5-17.28-74.11-16.15-74.99C-16.15-74.98-16.15-74.99-16.15-74.99z"/>
					</g>
					<g id="Path_1027">
						<path class="st3" d="M-7.77-63.04c1.23-0.95,3-0.73,3.95,0.5c0.95,1.23,0.73,3-0.5,3.95c-1.23,0.95-3,0.73-3.95-0.5
							c0,0,0,0,0,0C-9.23-60.32-9-62.09-7.77-63.04z"/>
					</g>
					<g id="Path_1028">
						<path class="st3" d="M-5.52-65.46c0.6-0.47,1.47-0.36,1.94,0.25c0.47,0.6,0.36,1.47-0.25,1.94c-0.6,0.47-1.47,0.36-1.94-0.25
							c0,0,0,0,0,0C-6.24-64.12-6.13-64.99-5.52-65.46z"/>
					</g>
					<g id="Path_1029">
						<path class="st3" d="M-30.46-64.55c0.83-0.64,2.01-0.49,2.65,0.34c0.64,0.83,0.49,2.01-0.34,2.65
							c-0.83,0.64-2.01,0.49-2.65-0.34C-31.43-62.72-31.28-63.91-30.46-64.55C-30.46-64.55-30.46-64.55-30.46-64.55z"/>
					</g>
					<g id="Path_1030">
						<path class="st3" d="M-28.01-58.93c0.49-0.38,1.2-0.29,1.59,0.2s0.29,1.2-0.2,1.59c-0.49,0.38-1.2,0.29-1.59-0.2c0,0,0,0,0,0
							C-28.59-57.84-28.5-58.55-28.01-58.93z"/>
					</g>
					<g id="Path_1031">
						<path class="st3" d="M-14.3-50.47c0.36-0.28,0.87-0.21,1.15,0.15c0.28,0.36,0.21,0.87-0.15,1.15
							c-0.36,0.28-0.87,0.21-1.15-0.15c0,0,0,0,0,0C-14.72-49.68-14.65-50.19-14.3-50.47C-14.3-50.47-14.3-50.47-14.3-50.47z"/>
					</g>
					<g id="Path_1032">
						<path class="st3" d="M-16.61-71.37L6.7-82.92l-3.2,3.9l9.83-5.06L-8.23-60.53l-4.78-6.18L-16.61-71.37z"/>
					</g>
				</g>
				<g id="Group_1563" transform="translate(28.504)">
					<g id="Path_1033">
						<path class="st3" d="M-18.18-73.89c0.33-2.54-0.37-5.12-1.94-7.14c-2.65-3.42-7.57-4.05-11-1.4c0,0,0,0,0,0
							c-2.78,2.16-3.29,6.16-1.14,8.94c1.76,2.27,5.02,2.68,7.29,0.93c1.86-1.44,2.2-4.11,0.76-5.97c-1.19-1.53-3.39-1.81-4.92-0.63
							c-1.27,0.98-1.5,2.8-0.53,4.07c0,0,0,0.01,0.01,0.01c0.17,0.22,0.48,0.26,0.7,0.09c0.22-0.17,0.26-0.48,0.09-0.7
							c-0.64-0.83-0.49-2.03,0.34-2.67c1.09-0.84,2.67-0.64,3.51,0.45c1.1,1.42,0.84,3.47-0.58,4.57c-1.83,1.42-4.47,1.08-5.88-0.75
							c0,0,0,0,0,0c-1.81-2.35-1.38-5.71,0.96-7.53c2.98-2.31,7.27-1.77,9.59,1.22c0,0,0,0.01,0.01,0.01
							c2.92,3.79,2.23,9.23-1.55,12.16c-0.23,0.15-0.29,0.46-0.14,0.69c0.15,0.23,0.46,0.29,0.69,0.14
							c0.02-0.01,0.04-0.03,0.06-0.04C-19.83-69.04-18.5-71.35-18.18-73.89z"/>
					</g>
				</g>
				<g id="Group_1564" transform="translate(39.43 29.963)">
					<g id="Path_1034">
						<path class="st3" d="M-26.58-79.44c0.15-1.16-0.17-2.33-0.88-3.25c-1.2-1.56-3.44-1.85-5-0.64c0,0,0,0-0.01,0.01
							c-1.27,0.98-1.5,2.8-0.52,4.07c0.8,1.03,2.29,1.22,3.32,0.42c0.85-0.66,1-1.87,0.35-2.72c-0.54-0.7-1.54-0.82-2.24-0.29
							c-0.58,0.45-0.68,1.28-0.24,1.86c0.07,0.1,0.21,0.13,0.32,0.06c0.1-0.07,0.13-0.21,0.06-0.32c0-0.01-0.01-0.01-0.01-0.02
							c-0.29-0.38-0.22-0.92,0.16-1.22c0.5-0.38,1.21-0.3,1.6,0.2c0.5,0.65,0.38,1.58-0.27,2.08c-0.84,0.64-2.03,0.49-2.68-0.34
							c-0.82-1.07-0.63-2.6,0.44-3.43c1.36-1.05,3.31-0.8,4.37,0.56c1.33,1.73,1.02,4.2-0.71,5.54c-0.1,0.08-0.12,0.22-0.04,0.32
							c0.08,0.1,0.22,0.12,0.32,0.04l0,0C-27.33-77.23-26.72-78.28-26.58-79.44z"/>
					</g>
				</g>
				<g id="Group_1565" transform="translate(48.409 24.137)">
					<g id="Path_1035">
						<path class="st3" d="M-19.92-75.16c0.44,0.06,0.85-0.26,0.91-0.7c0,0,0,0,0,0l0,0c0.06-0.44-0.26-0.85-0.7-0.91l-12.96-1.65
							c-0.44-0.06-0.85,0.26-0.91,0.7l0,0c-0.06,0.44,0.26,0.85,0.7,0.91L-19.92-75.16z"/>
					</g>
					<g id="Path_1036">
						<path class="st3" d="M-27.93-70.41c-0.06,0.44,0.26,0.85,0.7,0.91c0,0,0,0,0,0l0,0c0.44,0.06,0.85-0.26,0.91-0.7c0,0,0,0,0,0
							l1.65-12.96c0.06-0.44-0.26-0.85-0.7-0.91l0,0c-0.44-0.06-0.85,0.26-0.91,0.7L-27.93-70.41z"/>
					</g>
				</g>
				<g id="Group_1566" transform="translate(45.46 38.963)">
					<g id="Path_1037">
						<path class="st3" d="M-29.44-78.9c0.12,0.16,0.35,0.19,0.51,0.07l0,0c0.16-0.12,0.19-0.35,0.07-0.51l-3.56-4.6
							c-0.12-0.16-0.35-0.19-0.5-0.07c0,0,0,0,0,0l0,0c-0.16,0.12-0.19,0.35-0.06,0.51c0,0,0,0,0,0L-29.44-78.9z"/>
					</g>
					<g id="Path_1038">
						<path class="st3" d="M-33.45-79.93c-0.16,0.12-0.19,0.35-0.07,0.5c0,0,0,0,0,0l0,0c0.12,0.16,0.35,0.19,0.51,0.07l4.6-3.56
							c0.15-0.12,0.18-0.34,0.07-0.5l0,0c-0.12-0.16-0.35-0.19-0.51-0.07L-33.45-79.93z"/>
					</g>
				</g>
				<g id="Group_1567" transform="translate(27.664 18.13)">
					<g id="Path_1039">
						<path class="st3" d="M-29.44-78.9c0.12,0.15,0.34,0.18,0.5,0.07l0,0c0.16-0.12,0.19-0.35,0.07-0.5c0,0,0,0,0,0l-3.56-4.6
							c-0.12-0.16-0.34-0.19-0.5-0.07c0,0,0,0,0,0l0,0c-0.16,0.12-0.18,0.34-0.07,0.5L-29.44-78.9z"/>
					</g>
					<g id="Path_1040">
						<path class="st3" d="M-33.45-79.93c-0.16,0.12-0.18,0.34-0.07,0.5l0,0c0.12,0.16,0.35,0.19,0.5,0.07c0,0,0,0,0,0l4.6-3.56
							c0.15-0.12,0.18-0.34,0.07-0.5l0,0c-0.12-0.16-0.35-0.19-0.5-0.07c0,0,0,0,0,0L-33.45-79.93z"/>
					</g>
				</g>
			</g>
		</g>
	</g>
	<g id="Group_1571" transform="translate(235.89 99.27)">
		<g id="Path_1041">
			<path class="st3" d="M-8.07-99.27l-6.87,30.38l30.25-7.42L-8.07-99.27z"/>
		</g>
		<g id="Rectangle_1732">
			<path class="st3" d="M-8.08-85.36l9.7-9.86c1.99-2.03,5.25-2.05,7.28-0.06l2.14,2.1c2.03,1.99,2.05,5.25,0.06,7.28l0,0l-9.7,9.86
				c-1.99,2.03-5.25,2.05-7.27,0.06c0,0,0,0,0,0l-2.14-2.1C-10.04-80.08-10.07-83.33-8.08-85.36z"/>
		</g>
	</g>
	<g class="st11">
		<path class="st3" d="M138.24,80.35c-1.3,0-2.52-0.27-3.67-0.81c-1.15-0.54-2.14-1.25-2.96-2.12c-0.9,0.91-1.91,1.63-3.05,2.14
			c-1.14,0.51-2.38,0.77-3.71,0.77c-1.42,0-2.72-0.31-3.88-0.93c-1.16-0.62-2.17-1.42-3.04-2.4c-0.87-0.98-1.57-2.07-2.11-3.27
			s-0.91-2.4-1.11-3.59c-0.07-0.46-0.13-0.94-0.16-1.45c-0.04-0.51-0.06-1.03-0.06-1.56c0-0.99,0.06-2,0.19-3.05
			c0.13-1.05,0.31-2.09,0.55-3.14c0.33-1.42,0.76-2.86,1.3-4.31c0.54-1.45,1.19-2.96,1.96-4.52c0.77-1.56,1.65-3.2,2.64-4.93
			c1-1.73,2.11-3.57,3.36-5.55c-0.18-0.2-0.38-0.41-0.6-0.62c-0.22-0.21-0.41-0.41-0.58-0.59l5.86-5.89
			c0.16,0.18,0.36,0.39,0.6,0.63c0.24,0.24,0.49,0.48,0.75,0.73c0.26,0.25,0.52,0.49,0.78,0.74c0.26,0.25,0.49,0.47,0.71,0.67v-0.03
			c0.09,0.09,0.19,0.19,0.29,0.29c0.1,0.1,0.2,0.2,0.29,0.29c1.41,1.31,2.8,2.66,4.19,4.04c1.39,1.38,2.72,2.87,4,4.48
			c1.73,2.21,3.25,4.52,4.56,6.94c1.31,2.42,2.37,4.86,3.19,7.33c0.27,0.88,0.48,1.81,0.63,2.81c0.15,1,0.22,2.01,0.22,3.05
			c0,1.7-0.22,3.36-0.64,4.99c-0.43,1.63-1.09,3.08-1.99,4.37c-0.9,1.29-2.05,2.34-3.45,3.16c-1.41,0.82-3.08,1.27-5.01,1.34H138.24
			z M135.47,62.85c0,0.73,0.04,1.6,0.11,2.62s0.21,1.99,0.41,2.93c0.2,0.94,0.47,1.75,0.82,2.44c0.35,0.68,0.79,1.07,1.34,1.16
			c0.51-0.11,1-0.34,1.47-0.69c0.47-0.35,0.87-0.77,1.22-1.27c0.35-0.5,0.62-1.04,0.82-1.63c0.2-0.58,0.3-1.17,0.3-1.75
			c0-0.62-0.05-1.25-0.15-1.88c-0.1-0.63-0.21-1.18-0.34-1.66h0.03c-0.55-1.64-1.26-3.2-2.14-4.66s-1.83-2.84-2.86-4.14
			c-1.03-1.3-2.09-2.51-3.18-3.63s-2.1-2.16-3.05-3.11l-0.33-0.33c-0.84,1.13-1.67,2.36-2.49,3.68c-0.82,1.32-1.58,2.67-2.27,4.03
			c-0.69,1.36-1.31,2.7-1.85,4.01c-0.54,1.32-0.95,2.53-1.22,3.64c-0.15,0.75-0.27,1.56-0.36,2.42c-0.09,0.87-0.14,1.71-0.14,2.53
			c0,0.58,0.09,1.14,0.26,1.67c0.17,0.53,0.41,0.99,0.71,1.38s0.64,0.7,1.03,0.93c0.38,0.23,0.79,0.34,1.23,0.34
			c0.24,0,0.49-0.08,0.77-0.23s0.55-0.37,0.82-0.66s0.53-0.63,0.78-1.04s0.45-0.87,0.62-1.38c0.2-0.68,0.37-1.34,0.49-2
			c0.13-0.66,0.24-1.24,0.33-1.75c0.04-0.31,0.08-0.66,0.12-1.04c0.05-0.38,0.09-0.72,0.12-1.01L135.47,62.85z"/>
		<path class="st3" d="M153.61,64.6c0-1.41,0.27-2.73,0.81-3.99c0.54-1.25,1.27-2.34,2.19-3.27c0.92-0.93,2-1.67,3.25-2.22
			s2.57-0.82,4-0.82c1.41,0,2.73,0.27,3.99,0.82c1.25,0.55,2.34,1.29,3.27,2.22c0.93,0.93,1.67,2.02,2.22,3.27
			c0.55,1.25,0.82,2.58,0.82,3.99c0,1.42-0.27,2.76-0.82,4c-0.55,1.24-1.29,2.32-2.22,3.25c-0.93,0.92-2.02,1.65-3.27,2.19
			c-1.25,0.54-2.58,0.81-3.99,0.81c-1.42,0-2.76-0.27-4-0.81c-1.24-0.54-2.32-1.27-3.25-2.19c-0.92-0.92-1.65-2-2.19-3.25
			C153.88,67.36,153.61,66.02,153.61,64.6z M159.77,64.6c0,0.57,0.1,1.1,0.31,1.59s0.5,0.93,0.88,1.3c0.37,0.37,0.81,0.67,1.3,0.88
			s1.02,0.32,1.59,0.32s1.1-0.11,1.6-0.32c0.5-0.21,0.94-0.5,1.31-0.88c0.37-0.37,0.67-0.81,0.89-1.3s0.33-1.02,0.33-1.59
			c0-0.57-0.11-1.1-0.33-1.6s-0.52-0.94-0.89-1.32c-0.37-0.37-0.81-0.67-1.31-0.89c-0.5-0.22-1.04-0.33-1.6-0.33
			s-1.1,0.11-1.59,0.33c-0.49,0.22-0.93,0.52-1.3,0.89c-0.37,0.38-0.67,0.81-0.88,1.32S159.77,64.03,159.77,64.6z"/>
		<path class="st3" d="M179.54,64.6c0-1.41,0.27-2.73,0.81-3.99c0.54-1.25,1.27-2.34,2.19-3.27c0.92-0.93,2-1.67,3.25-2.22
			s2.57-0.82,4-0.82c1.41,0,2.73,0.27,3.99,0.82c1.25,0.55,2.34,1.29,3.27,2.22c0.93,0.93,1.67,2.02,2.22,3.27
			c0.55,1.25,0.82,2.58,0.82,3.99c0,1.42-0.27,2.76-0.82,4c-0.55,1.24-1.29,2.32-2.22,3.25c-0.93,0.92-2.02,1.65-3.27,2.19
			c-1.25,0.54-2.58,0.81-3.99,0.81c-1.42,0-2.76-0.27-4-0.81c-1.24-0.54-2.32-1.27-3.25-2.19c-0.92-0.92-1.65-2-2.19-3.25
			C179.81,67.36,179.54,66.02,179.54,64.6z M185.71,64.6c0,0.57,0.1,1.1,0.31,1.59s0.5,0.93,0.88,1.3c0.37,0.37,0.81,0.67,1.3,0.88
			s1.02,0.32,1.59,0.32s1.1-0.11,1.6-0.32c0.5-0.21,0.94-0.5,1.31-0.88c0.37-0.37,0.67-0.81,0.89-1.3s0.33-1.02,0.33-1.59
			c0-0.57-0.11-1.1-0.33-1.6s-0.52-0.94-0.89-1.32c-0.37-0.37-0.81-0.67-1.31-0.89c-0.5-0.22-1.04-0.33-1.6-0.33
			s-1.1,0.11-1.59,0.33c-0.49,0.22-0.93,0.52-1.3,0.89c-0.37,0.38-0.67,0.81-0.88,1.32S185.71,64.03,185.71,64.6z"/>
	</g>
</g>
</svg>
