<?xml version="1.0" encoding="utf-8"?>
<!-- Generator: Adobe Illustrator 23.0.3, SVG Export Plug-In . SVG Version: 6.00 Build 0)  -->
<svg version="1.1" id="Layer_1" xmlns="http://www.w3.org/2000/svg" xmlns:xlink="http://www.w3.org/1999/xlink" x="0px" y="0px"
	 viewBox="0 0 281.77 233.32" style="enable-background:new 0 0 281.77 233.32;" xml:space="preserve">
<style type="text/css">
	.st0{fill:#DDE1DF;}
	.st1{fill:#AFCDC9;}
	.st2{fill:#456AB2;}
	.st3{fill:#FFFFFF;}
	.st4{fill:#04233B;}
	.st5{clip-path:url(#SVGID_2_);}
	.st6{fill:#002F3E;}
	.st7{fill:#F15B3B;}
	.st8{fill:#0A141C;}
	.st9{opacity:0.1;}
	.st10{fill:none;stroke:#FFFFFF;stroke-miterlimit:10;}
	.st11{enable-background:new    ;}
</style>
<g>
	<g id="Group_1570" transform="translate(33.018 141.04)">
		<g id="Group_1547" transform="translate(56.123 128.361)">
			<g id="Path_987">
				<path class="st0" d="M58.06-84.08L40.63-81.7l-13.6-2.38C28.55-60.7,6.73-50,6.73-50h71.63C78.36-50,56.53-60.7,58.06-84.08z"/>
			</g>
			<g id="Path_988">
				<path class="st1" d="M40.63-81.7l-13.6-2.38c0.41,5.68-0.67,11.37-3.13,16.5l40.33,5.14c-4.54-6.26-6.72-13.92-6.17-21.64
					L40.63-81.7z"/>
			</g>
			<g id="Path_989">
				<path class="st2" d="M119-44.95c0,2.11-1.71,3.82-3.82,3.82h-144.6c-2.11,0-3.82-1.71-3.82-3.82l0,0c0-2.11,1.71-3.82,3.82-3.82
					h144.6C117.29-48.76,119-47.06,119-44.95z"/>
			</g>
			<g id="Path_990">
				<path class="st3" d="M82.04-48.76c0,2.11-1.71,3.82-3.82,3.82H7.92c-2.11,0-3.82-1.71-3.82-3.82l0,0c0-2.11,1.71-3.82,3.82-3.82
					h70.3C80.33-52.58,82.04-50.87,82.04-48.76z"/>
			</g>
		</g>
		<g id="Group_1569" transform="translate(0 0)">
			<g id="Path_991">
				<path class="st3" d="M183.14,58.29c-0.82,6.43-6.69,10.97-13.12,10.15L29.39,50.51c-6.43-0.82-10.97-6.69-10.15-13.12
					c0,0,0,0,0,0l9.71-76.15c0.82-6.43,6.69-10.97,13.12-10.15L182.7-30.99c6.43,0.82,10.97,6.69,10.15,13.12c0,0,0,0,0,0
					L183.14,58.29z"/>
			</g>
			<g id="Path_992">
				<path class="st2" d="M182.7-30.99L42.07-48.92c-6.43-0.82-12.3,3.73-13.12,10.15l-9.71,76.15c-0.02,0.16-0.02,0.33-0.04,0.49
					l163.85,20.9c0.03-0.16,0.07-0.32,0.09-0.48l9.71-76.15C193.67-24.29,189.13-30.16,182.7-30.99
					C182.7-30.99,182.7-30.99,182.7-30.99z"/>
			</g>
			<g id="Rectangle_1730">
				
					<rect x="70.07" y="-69.99" transform="matrix(0.127 -0.9919 0.9919 0.127 86.479 111.3258)" class="st4" width="72.82" height="153.05"/>
			</g>
			<g id="Group_1549" transform="translate(59.193 44.786)">
				<g>
					<defs>
						
							<rect id="SVGID_1_" x="10.88" y="-114.77" transform="matrix(0.127 -0.9919 0.9919 0.127 79.2262 13.5133)" width="72.82" height="153.05"/>
					</defs>
					<clipPath id="SVGID_2_">
						<use xlink:href="#SVGID_1_"  style="overflow:visible;"/>
					</clipPath>
					<g id="Group_1548" transform="translate(0)" class="st5">
						<g id="Path_993">
							<path class="st6" d="M157.05,6.32l-4.67-6.82l-6.22,5.44l-4.67-6.82l-6.23,5.44l-4.67-6.82l-6.22,5.44l-4.67-6.82l-6.22,5.44
								l-4.67-6.82l-6.22,5.44l-4.67-6.82l-6.22,5.44L87.02-8.8L80.8-3.36l-4.67-6.82l-6.22,5.44l-4.66-6.82l-6.22,5.44l-4.66-6.82
								l-6.22,5.44l-4.66-6.82l-6.22,5.44l-4.66-6.82l-6.22,5.44l-4.67-6.82l-6.22,5.44l-4.67-6.82l-6.22,5.44l-4.67-6.82
								l-6.22,5.44l-4.67-6.82l-6.22,5.44l-4.67-6.82l-6.22,5.44l-4.67-6.82l-6.22,5.44l-4.66-6.82l-6.22,5.44l-4.67-6.82
								l-6.22,5.44l-4.66-6.82l-6.22,5.44l-4.67-6.82l-6.22,5.44l-4.66-6.82l-6.22,5.44l-4.67-6.82l-6.22,5.44l-3.68-5.39
								l-2.55,1.74l5.65,8.26l6.22-5.44l4.67,6.82l6.22-5.44l4.67,6.82l6.22-5.44l4.67,6.82l6.22-5.44l4.66,6.82l6.22-5.44
								l4.67,6.82l6.22-5.44l4.66,6.82l6.22-5.44l4.67,6.82l6.22-5.44l4.66,6.82l6.22-5.44l4.67,6.82l6.22-5.44l4.67,6.82l6.22-5.44
								l4.67,6.82l6.22-5.44l4.67,6.82L32-11.09l4.66,6.82l6.22-5.44l4.66,6.82l6.22-5.44l4.66,6.82l6.22-5.44l4.66,6.82l6.22-5.44
								l4.67,6.82l6.22-5.44l4.67,6.82l6.22-5.44L102,4.02l6.23-5.44l4.67,6.82l6.22-5.44l4.67,6.82L130,1.35l4.67,6.82l6.22-5.44
								l4.67,6.82l6.23-5.44l4.67,6.82L164,4.36l-2.03-2.33L157.05,6.32z M158.31-3.58l-4.67-6.82l-6.22,5.44l-4.67-6.82l-6.23,5.44
								l-4.67-6.82l-6.22,5.44l-4.67-6.82l-6.22,5.44l-4.67-6.82l-6.22,5.44l-4.67-6.82l-6.22,5.44l-4.67-6.82l-6.22,5.44
								l-4.66-6.82l-6.22,5.44l-4.66-6.82l-6.22,5.44l-4.66-6.82l-6.22,5.44l-4.66-6.82l-6.22,5.44l-4.66-6.82l-6.22,5.44L22.96-27
								l-6.22,5.44l-4.67-6.82l-6.22,5.44l-4.67-6.82l-6.22,5.44l-4.67-6.82l-6.22,5.44l-4.66-6.83l-6.22,5.44l-4.67-6.82
								l-6.22,5.44l-4.66-6.82l-6.23,5.44l-4.67-6.82l-6.22,5.44l-4.66-6.82l-6.22,5.44l-4.67-6.82L-81.25-34l-4.66-6.82l-6.22,5.44
								l-4.67-6.82l-6.22,5.44l-3.68-5.39l-2.55,1.74l5.65,8.26l6.22-5.44l4.67,6.82l6.22-5.44l4.66,6.82l6.22-5.44l4.67,6.82
								l6.22-5.44l4.66,6.82l6.22-5.44l4.67,6.82l6.22-5.44l4.66,6.82l6.22-5.44l4.67,6.82l6.22-5.44l4.67,6.82l6.22-5.44l4.67,6.82
								l6.22-5.44l4.67,6.82l6.22-5.44l4.67,6.82l6.22-5.44l4.67,6.82L33.26-21l4.66,6.82l6.22-5.44l4.66,6.82l6.22-5.44l4.66,6.82
								l6.22-5.44l4.66,6.82l6.22-5.44l4.66,6.82l6.22-5.44l4.67,6.82l6.22-5.44l4.67,6.82l6.22-5.44l4.67,6.82l6.22-5.44l4.67,6.82
								l6.22-5.44l4.67,6.82l6.23-5.44l4.67,6.82l6.23-5.44l4.67,6.82l7.54-6.58l-2.03-2.33L158.31-3.58z M159.56-13.48l-4.67-6.82
								l-6.22,5.44L144-21.69l-6.23,5.44l-4.67-6.82l-6.22,5.44l-4.67-6.82l-6.22,5.44l-4.67-6.82l-6.22,5.44l-4.67-6.82l-6.22,5.44
								l-4.67-6.82l-6.22,5.44l-4.67-6.82l-6.22,5.44l-4.66-6.82l-6.22,5.44l-4.66-6.82l-6.22,5.44l-4.66-6.82l-6.22,5.44
								l-4.66-6.82l-6.22,5.44l-4.67-6.82L18-31.46l-4.67-6.82l-6.22,5.44l-4.67-6.82l-6.22,5.44l-4.67-6.82l-6.22,5.44l-4.66-6.82
								l-6.22,5.44l-4.67-6.82l-6.22,5.44l-4.66-6.82l-6.22,5.44L-52-46.58l-6.22,5.44l-4.66-6.82l-6.22,5.44l-4.67-6.82l-6.22,5.44
								l-4.66-6.82l-6.22,5.44l-4.67-6.82l-6.22,5.44l-3.68-5.38l-2.55,1.74l5.65,8.26l6.22-5.44l4.67,6.82l6.22-5.44l4.66,6.82
								l6.22-5.44l4.66,6.82l6.22-5.44l4.66,6.82l6.22-5.44l4.67,6.82l6.22-5.44l4.66,6.82l6.22-5.44l4.66,6.82l6.22-5.44l4.66,6.82
								l6.22-5.44l4.67,6.82l6.22-5.44l4.67,6.82l6.22-5.44l4.67,6.82l6.22-5.44l4.67,6.82l6.22-5.44l4.66,6.82l6.22-5.44l4.66,6.82
								l6.22-5.44l4.66,6.82l6.22-5.44l4.66,6.82l6.22-5.44l4.66,6.82l6.22-5.44l4.67,6.82l6.22-5.44l4.67,6.82l6.22-5.44l4.67,6.82
								l6.22-5.44l4.67,6.82l6.22-5.44l4.67,6.82l6.23-5.44l4.67,6.82l6.23-5.44l4.67,6.82l7.54-6.58l-2.03-2.33L159.56-13.48z
								 M154.53,26.14l-4.67-6.82l-6.23,5.44l-4.67-6.82l-6.23,5.44l-4.67-6.82l-6.22,5.44l-4.67-6.82l-6.22,5.44l-4.67-6.82
								l-6.22,5.44l-4.67-6.82l-6.22,5.44l-4.67-6.82l-6.22,5.44l-4.67-6.82l-6.22,5.44l-4.66-6.82l-6.22,5.44l-4.66-6.82
								l-6.22,5.44l-4.66-6.82l-6.22,5.44L30.08,4.1l-6.22,5.44l-4.67-6.82l-6.22,5.44L8.3,1.33L2.08,6.78l-4.67-6.82l-6.22,5.44
								l-4.67-6.82l-6.22,5.44l-4.67-6.82l-6.22,5.43l-4.66-6.82l-6.22,5.44l-4.66-6.82l-6.22,5.44l-4.66-6.82l-6.22,5.44
								l-4.66-6.82l-6.22,5.44l-4.67-6.82l-6.22,5.44l-4.67-6.83l-6.22,5.44l-4.67-6.82l-6.22,5.44l-3.68-5.39l-2.55,1.74l5.65,8.26
								l6.22-5.44l4.67,6.82l6.22-5.44l4.66,6.82l6.22-5.44l4.67,6.82l6.22-5.44l4.66,6.82l6.22-5.44l4.67,6.82l6.22-5.44l4.66,6.82
								l6.23-5.43l4.67,6.82l6.22-5.44l4.66,6.82l6.22-5.44L-9.4,10l6.22-5.44l4.67,6.82l6.22-5.44l4.67,6.82l6.22-5.44l4.67,6.82
								l6.22-5.44l4.66,6.82l6.22-5.44l4.66,6.82l6.23-5.44l4.66,6.82l6.22-5.44l4.66,6.82l6.22-5.44l4.67,6.82l6.22-5.44l4.67,6.82
								l6.22-5.44l4.67,6.82l6.22-5.44l4.67,6.82l6.22-5.44l4.67,6.82l6.22-5.44l4.67,6.82l6.23-5.44l4.67,6.82l6.23-5.44l4.67,6.82
								l7.54-6.58l-2.03-2.33L154.53,26.14z M-88.58-106.92l4.67,6.82l6.22-5.44l4.66,6.82l6.22-5.44l4.67,6.82l6.22-5.44l4.66,6.82
								l6.22-5.44l4.67,6.82l6.22-5.44l4.66,6.82l6.22-5.44l4.67,6.82l6.22-5.44l4.66,6.82l6.22-5.44l4.67,6.82l6.22-5.44l4.67,6.82
								l6.22-5.44l4.67,6.82l6.22-5.44l4.67,6.82l6.22-5.44l4.66,6.82l6.22-5.44l4.66,6.82l6.22-5.44l4.66,6.82l6.22-5.44l4.66,6.82
								l6.22-5.44l4.66,6.82l6.22-5.44l4.67,6.82l6.22-5.44l4.67,6.82l6.22-5.44l4.67,6.82l6.22-5.44l4.67,6.82l6.22-5.44l4.67,6.82
								l6.23-5.44l4.67,6.82l6.23-5.44l4.67,6.82l7.54-6.58l-2.03-2.33l-4.92,4.3l-4.67-6.82l-6.22,5.44l-4.67-6.82l-6.23,5.44
								l-4.67-6.82l-6.22,5.44l-4.67-6.82l-6.22,5.44l-4.67-6.82l-6.22,5.44l-4.67-6.82l-6.23,5.44l-4.67-6.82l-6.22,5.44
								l-4.66-6.82l-6.22,5.44l-4.66-6.82l-6.22,5.44l-4.66-6.82l-6.22,5.44l-4.66-6.82l-6.23,5.44l-4.66-6.82l-6.22,5.44
								l-4.67-6.82l-6.22,5.44l-4.67-6.82l-6.22,5.44l-4.67-6.82l-6.22,5.44l-4.67-6.82l-6.22,5.44l-4.67-6.82l-6.22,5.44
								l-4.66-6.82l-6.22,5.44l-4.66-6.82l-6.22,5.44l-4.67-6.82l-6.22,5.44l-4.66-6.82l-6.22,5.44l-4.67-6.82l-6.22,5.44
								l-4.66-6.82l-6.22,5.44l-4.67-6.82l-6.22,5.44l-3.68-5.38l-2.55,1.74l5.65,8.26L-88.58-106.92z M155.79,16.22l-4.68-6.82
								l-6.22,5.44l-4.67-6.82L134,13.46l-4.67-6.82l-6.22,5.44l-4.67-6.82l-6.22,5.44l-4.67-6.82l-6.22,5.44l-4.67-6.82l-6.22,5.44
								l-4.67-6.82l-6.22,5.44l-4.67-6.82l-6.22,5.44l-4.66-6.82l-6.22,5.44L53.1-3.04L46.88,2.4l-4.66-6.82L36,1.02l-4.66-6.82
								l-6.22,5.44l-4.67-6.82l-6.22,5.44L9.56-8.57L3.33-3.13l-4.67-6.82l-6.22,5.44l-4.67-6.82l-6.22,5.44l-4.67-6.82l-6.22,5.44
								l-4.67-6.82l-6.22,5.44l-4.67-6.82l-6.22,5.44l-4.67-6.83l-6.22,5.44l-4.66-6.82l-6.22,5.44l-4.67-6.82l-6.22,5.44
								l-4.66-6.82l-6.22,5.44l-4.67-6.82l-6.22,5.44l-3.68-5.39l-2.55,1.75l5.65,8.26l6.22-5.44l4.67,6.82l6.22-5.44l4.66,6.82
								l6.22-5.44l4.67,6.82l6.22-5.44l4.66,6.82l6.22-5.44l4.67,6.82l6.22-5.44l4.66,6.82l6.22-5.44l4.66,6.82l6.22-5.44l4.67,6.83
								l6.22-5.44l4.67,6.82l6.22-5.44l4.67,6.82l6.22-5.44l4.67,6.82l6.22-5.44l4.67,6.82l6.22-5.44l4.66,6.82l6.22-5.44l4.66,6.82
								l6.22-5.44l4.66,6.82l6.22-5.44l4.66,6.82l6.22-5.44l4.67,6.82l6.22-5.44l4.67,6.82l6.22-5.44l4.67,6.82l6.22-5.44l4.67,6.82
								l6.22-5.44l4.67,6.82l6.22-5.44l4.67,6.82l6.23-5.44l4.67,6.82l6.23-5.44l4.67,6.82l7.54-6.58l-2.03-2.33L155.79,16.22z
								 M165.85-63.01l-4.67-6.82l-6.22,5.44l-4.67-6.82l-6.23,5.44l-4.67-6.82l-6.22,5.44l-4.67-6.81l-6.22,5.44l-4.67-6.82
								l-6.22,5.44l-4.67-6.82l-6.22,5.44l-4.67-6.82l-6.22,5.44l-4.66-6.82l-6.23,5.43l-4.66-6.82l-6.22,5.44l-4.66-6.82
								l-6.22,5.44l-4.66-6.82l-6.22,5.44l-4.66-6.82l-6.22,5.44l-4.67-6.82l-6.22,5.44l-4.67-6.82l-6.22,5.44l-4.67-6.82L2.5-83.75
								l-4.67-6.82l-6.22,5.44l-4.67-6.82l-6.22,5.44l-4.66-6.82l-6.22,5.44l-4.66-6.82l-6.22,5.44l-4.67-6.82l-6.22,5.44
								l-4.66-6.82l-6.22,5.44l-4.66-6.82l-6.22,5.44l-4.66-6.82l-6.22,5.44l-4.67-6.82l-6.22,5.44l-3.68-5.39l-2.55,1.74l5.65,8.26
								l6.22-5.44l4.67,6.82l6.22-5.44l4.66,6.82l6.22-5.44l4.67,6.82l6.22-5.44l4.66,6.82l6.22-5.44l4.67,6.82l6.22-5.44l4.67,6.82
								l6.22-5.44l4.67,6.82l6.22-5.44l4.66,6.82l6.22-5.44l4.67,6.82l6.22-5.44l4.67,6.82l6.22-5.44l4.67,6.82l6.22-5.44l4.67,6.82
								l6.22-5.44l4.66,6.82l6.22-5.44l4.66,6.82l6.22-5.44l4.66,6.82l6.22-5.44l4.66,6.82l6.22-5.44l4.67,6.82l6.22-5.44l4.67,6.82
								l6.22-5.44l4.67,6.82l6.22-5.44l4.67,6.82l6.22-5.44l4.67,6.82l6.22-5.44l4.67,6.82l6.23-5.44l4.67,6.82l6.23-5.44l4.67,6.82
								l7.54-6.58l-2.03-2.33L165.85-63.01z M164.59-53.11l-4.67-6.82l-6.22,5.44l-4.67-6.82l-6.23,5.44l-4.67-6.82l-6.22,5.44
								l-4.67-6.82l-6.22,5.44l-4.67-6.82l-6.22,5.44l-4.67-6.82l-6.22,5.44l-4.67-6.82l-6.22,5.44l-4.67-6.82l-6.22,5.44L72.79-71
								l-6.22,5.44l-4.66-6.81l-6.22,5.44l-4.66-6.82l-6.22,5.44l-4.66-6.82l-6.22,5.44l-4.67-6.82l-6.22,5.44l-4.67-6.82
								l-6.22,5.44l-4.67-6.82l-6.22,5.44l-4.67-6.82l-6.22,5.44l-4.67-6.82l-6.22,5.44l-4.67-6.82l-6.22,5.44l-4.66-6.82
								l-6.22,5.44l-4.67-6.82l-6.23,5.44l-4.66-6.82l-6.22,5.44l-4.67-6.82l-6.22,5.44l-4.66-6.82l-6.22,5.44l-4.67-6.82
								l-6.22,5.44l-3.68-5.38l-2.55,1.74l5.65,8.26l6.22-5.44l4.67,6.82l6.22-5.44l4.66,6.82l6.22-5.44l4.67,6.82l6.22-5.44
								l4.66,6.82l6.22-5.44l4.67,6.82l6.22-5.44l4.66,6.82l6.22-5.44l4.67,6.82l6.22-5.44l4.67,6.82L-4-76.05l4.67,6.82l6.22-5.44
								l4.67,6.82l6.22-5.44l4.67,6.82l6.22-5.44l4.67,6.82l6.22-5.44l4.66,6.82l6.22-5.44l4.66,6.82l6.22-5.44l4.66,6.82l6.22-5.44
								l4.66,6.82l6.22-5.44l4.67,6.82l6.22-5.44l4.67,6.82l6.22-5.44l4.67,6.82l6.22-5.44l4.67,6.82l6.22-5.44l4.67,6.82l6.22-5.44
								l4.67,6.82l6.23-5.44l4.67,6.82l6.23-5.44l4.67,6.82l7.54-6.58l-2.03-2.33L164.59-53.11z M163.34-43.21l-4.67-6.82
								l-6.23,5.44l-4.67-6.82l-6.23,5.44l-4.67-6.82l-6.22,5.44l-4.67-6.82l-6.22,5.44l-4.67-6.82l-6.22,5.44l-4.67-6.82
								l-6.22,5.44l-4.67-6.81l-6.22,5.44l-4.67-6.82l-6.22,5.44l-4.66-6.82l-6.23,5.44l-4.66-6.82l-6.22,5.44l-4.66-6.82
								l-6.22,5.44l-4.66-6.82l-6.22,5.44l-4.67-6.82l-6.22,5.44L17.1-68l-6.22,5.44l-4.66-6.82l-6.22,5.44l-4.67-6.82l-6.22,5.44
								l-4.67-6.82l-6.22,5.43l-4.67-6.82l-6.22,5.44l-4.67-6.82l-6.22,5.44l-4.67-6.82l-6.22,5.44l-4.66-6.82l-6.22,5.44
								l-4.67-6.82l-6.22,5.44l-4.66-6.82L-87.1-75l-4.67-6.82l-6.22,5.44l-3.68-5.38l-2.55,1.74l5.65,8.26l6.22-5.44l4.67,6.82
								l6.22-5.44L-76.8-69l6.22-5.44l4.67,6.82l6.22-5.44l4.67,6.82l6.22-5.44l4.67,6.82l6.22-5.44l4.66,6.82l6.22-5.44l4.66,6.82
								l6.22-5.44l4.67,6.82l6.22-5.44l4.67,6.82l6.22-5.44l4.67,6.82l6.22-5.44l4.67,6.82L27.4-62l4.67,6.82l6.22-5.44l4.66,6.82
								l6.22-5.44l4.66,6.82l6.22-5.44l4.66,6.82l6.22-5.44l4.66,6.82l6.22-5.44l4.67,6.82l6.22-5.44l4.67,6.82l6.22-5.44l4.67,6.82
								l6.22-5.44l4.67,6.82l6.22-5.44l4.67,6.82l6.22-5.44l4.67,6.82l6.23-5.44l4.67,6.82l6.23-5.44l4.67,6.82l7.54-6.58
								l-2.03-2.33L163.34-43.21z M162.08-33.31l-4.67-6.82l-6.22,5.44l-4.67-6.82l-6.22,5.44l-4.67-6.82l-6.22,5.44l-4.67-6.82
								l-6.22,5.44l-4.67-6.82l-6.22,5.44l-4.67-6.82l-6.22,5.44l-4.67-6.82l-6.22,5.46l-4.66-6.82l-6.22,5.44l-4.66-6.82
								l-6.22,5.44l-4.66-6.82l-6.22,5.44l-4.66-6.82l-6.22,5.44l-4.66-6.82l-6.22,5.44l-4.67-6.82l-6.22,5.44l-4.67-6.82
								l-6.22,5.44l-4.67-6.82l-6.22,5.44l-4.67-6.82l-6.22,5.44l-4.67-6.82l-6.22,5.44l-4.66-6.82l-6.22,5.44l-4.66-6.82
								l-6.22,5.44l-4.67-6.82l-6.22,5.44l-4.67-6.83l-6.22,5.45l-4.67-6.82l-6.22,5.44l-4.66-6.82l-6.22,5.44l-4.67-6.82
								l-6.22,5.44l-3.68-5.38l-2.55,1.74l5.65,8.26l6.22-5.44l4.67,6.82l6.22-5.44l4.66,6.82l6.22-5.44l4.67,6.82l6.22-5.44
								l4.67,6.82l6.22-5.44l4.67,6.82l6.22-5.44l4.67,6.82l6.22-5.44l4.67,6.82l6.22-5.44l4.67,6.82l6.22-5.44l4.67,6.82l6.22-5.44
								l4.67,6.82l6.22-5.44l4.67,6.82l6.22-5.44l4.67,6.82l6.22-5.44l4.66,6.82l6.22-5.44l4.66,6.82l6.22-5.44l4.66,6.82l6.22-5.44
								l4.66,6.82l6.22-5.44l4.67,6.82l6.22-5.44l4.67,6.83l6.22-5.44l4.67,6.82l6.22-5.44l4.67,6.82l6.22-5.44l4.67,6.82l6.22-5.44
								l4.67,6.82l6.23-5.44l4.67,6.82l6.23-5.44l4.67,6.82l7.54-6.58L167-37.59L162.08-33.31z M160.82-23.41l-4.67-6.82l-6.22,5.44
								l-4.67-6.82l-6.23,5.44l-4.67-6.8l-6.22,5.44l-4.67-6.82l-6.22,5.44l-4.67-6.82l-6.22,5.44l-4.67-6.82l-6.22,5.44l-4.67-6.82
								l-6.22,5.44l-4.67-6.82l-6.22,5.44l-4.66-6.82l-6.22,5.44l-4.66-6.82l-6.22,5.44l-4.66-6.82l-6.22,5.44l-4.66-6.82
								l-6.22,5.44l-4.67-6.82l-6.22,5.44l-4.67-6.82l-6.22,5.44L3.7-49.57l-6.22,5.44l-4.67-6.82l-6.22,5.44l-4.66-6.82l-6.22,5.44
								l-4.67-6.82l-6.23,5.44l-4.66-6.82l-6.22,5.44l-4.67-6.82l-6.22,5.44l-4.66-6.82l-6.22,5.44l-4.67-6.82l-6.22,5.44
								l-4.66-6.82l-6.22,5.44l-4.67-6.82l-6.22,5.43l-3.68-5.38l-2.55,1.74l5.65,8.26l6.22-5.44l4.67,6.82l6.22-5.44l4.66,6.82
								l6.22-5.44l4.67,6.82l6.22-5.44l4.66,6.82l6.22-5.44l4.67,6.82l6.22-5.44l4.67,6.82l6.22-5.44l4.67,6.82l6.22-5.44L-14-40.9
								l6.22-5.44l4.67,6.82l6.22-5.44l4.67,6.82L14-43.57l4.67,6.82l6.22-5.44l4.67,6.82l6.22-5.44l4.66,6.82l6.22-5.44l4.66,6.82
								l6.22-5.44l4.66,6.82l6.22-5.44l4.66,6.82l6.22-5.44l4.66,6.82l6.22-5.44l4.67,6.82l6.22-5.44l4.67,6.82l6.22-5.44l4.67,6.82
								l6.22-5.44l4.67,6.82l6.22-5.44l4.67,6.82l6.23-5.44l4.67,6.82l6.23-5.44l4.67,6.82l7.54-6.58l-2.03-2.33L160.82-23.41z"/>
						</g>
					</g>
				</g>
			</g>
			<g id="Group_1552" transform="translate(85.077 61.533)">
				<g id="Group_1550">
					<g id="Path_994">
						<path class="st7" d="M-27.89-54.45c-1.45,1.12-3.54,0.85-4.66-0.6c0,0,0,0,0,0l0,0c-1.12-1.45-0.86-3.53,0.59-4.66
							l26.71-20.67c1.45-1.12,3.53-0.85,4.65,0.6c0,0,0,0,0,0l0,0c1.12,1.45,0.86,3.53-0.59,4.66L-27.89-54.45z"/>
					</g>
					<g id="Path_995">
						<path class="st7" d="M-3.61-56.08c1.12,1.45,0.86,3.54-0.6,4.66l0,0c-1.45,1.12-3.53,0.86-4.66-0.59l-20.66-26.71
							c-1.12-1.45-0.86-3.53,0.59-4.66l0,0c1.45-1.12,3.54-0.86,4.66,0.59c0,0,0,0,0,0L-3.61-56.08z"/>
					</g>
				</g>
				<g id="Group_1551" transform="translate(77.79 9.922)">
					<g id="Path_996">
						<path class="st7" d="M-27.89-54.45c-1.45,1.12-3.53,0.86-4.66-0.59c0,0,0,0,0,0l0,0c-1.12-1.45-0.86-3.53,0.59-4.66
							l26.71-20.66c1.45-1.12,3.53-0.86,4.66,0.59c0,0,0,0,0,0l0,0c1.12,1.45,0.86,3.53-0.59,4.66c0,0,0,0,0,0L-27.89-54.45z"/>
					</g>
					<g id="Path_997">
						<path class="st7" d="M-3.61-56.09c1.12,1.45,0.86,3.53-0.59,4.66c0,0,0,0,0,0l0,0c-1.45,1.12-3.53,0.86-4.66-0.59
							l-20.67-26.71c-1.12-1.45-0.85-3.53,0.6-4.66l0,0c1.45-1.12,3.53-0.86,4.66,0.59c0,0,0,0,0,0L-3.61-56.09z"/>
					</g>
				</g>
			</g>
			<g id="Group_1553" transform="translate(116.941 99.821)">
				<g id="Path_998">
					<path class="st7" d="M0.81-59.16c-2.05-0.26-3.49-2.13-3.23-4.17c0,0,0,0,0,0c0.82-6.45-3.74-12.35-10.2-13.18
						s-12.35,3.74-13.18,10.2c-0.26,2.05-2.13,3.49-4.18,3.23s-3.49-2.13-3.23-4.18c1.34-10.55,10.98-18,21.53-16.66
						c10.55,1.34,18,10.98,16.66,21.53C4.72-60.35,2.85-58.9,0.81-59.16C0.81-59.16,0.81-59.16,0.81-59.16z"/>
				</g>
			</g>
			<g id="Path_999">
				<path class="st4" d="M118.95-33.45c-0.1,0.81-0.84,1.38-1.65,1.28l-10.85-1.38c-0.81-0.1-1.38-0.84-1.28-1.65l0,0
					c0.1-0.81,0.84-1.38,1.65-1.28l10.85,1.38C118.48-35,119.06-34.26,118.95-33.45C118.95-33.45,118.95-33.45,118.95-33.45
					L118.95-33.45z"/>
			</g>
			<g id="Path_1000">
				<path class="st8" d="M105.96-35.12c-0.05,0.44,0.26,0.84,0.7,0.89c0.44,0.05,0.84-0.26,0.89-0.7c0.05-0.43-0.26-0.83-0.69-0.89
					c-0.44-0.06-0.84,0.25-0.9,0.69C105.96-35.13,105.96-35.13,105.96-35.12z"/>
			</g>
			<g id="Group_1554" transform="translate(53.546 38.215)" class="st9">
				<g id="Path_1001">
					<path class="st3" d="M-27.65-53.03l-5.04,39.55l84.73-65.56l-39.55-5.04L-27.65-53.03z"/>
				</g>
				<g id="Path_1002">
					<path class="st3" d="M132.66-68.18c-1.11-0.52-2.29-0.87-3.51-1.02l-56.27-7.18L-33.24,5.73c1.72,3.59,5.14,6.06,9.08,6.56
						l45.34,5.78L132.66-68.18z"/>
				</g>
				<g id="Path_1003">
					<path class="st3" d="M136.78-36.26l0.96-7.55L52.58,22.08l7.55,0.96L136.78-36.26z"/>
				</g>
			</g>
			<g id="Group_1561" transform="translate(205.755)">
				<g id="Group_1555" transform="translate(21.694)">
					<g id="Path_1005">
						<path class="st3" d="M14.38-53.74c-0.13-0.17-0.26-0.32-0.4-0.48c3.57-5.39,2.09-12.66-3.3-16.23
							c-3.11-2.06-7.02-2.51-10.52-1.22c-1.4-3.58-5.43-5.35-9.01-3.95s-5.35,5.43-3.95,9.01c0.9,2.31,2.96,3.96,5.41,4.34
							c-0.84,6.13,3.25,11.86,9.32,13.06c0.16,3.84,3.4,6.82,7.24,6.66c3.84-0.16,6.82-3.4,6.66-7.24
							C15.76-51.22,15.26-52.61,14.38-53.74L14.38-53.74z"/>
					</g>
					<g id="Path_1006">
						<path class="st3" d="M16.99-56.69c-1.11,0.86-1.32,2.46-0.46,3.58c0.86,1.11,2.46,1.32,3.58,0.46
							c1.11-0.86,1.32-2.46,0.46-3.58c0,0,0,0,0,0C19.7-57.35,18.1-57.55,16.99-56.69z"/>
					</g>
					<g id="Path_1007">
						<path class="st3" d="M-0.19-83.02c-2.22,1.72-2.62,4.9-0.91,7.12c1.72,2.22,4.9,2.62,7.12,0.91c2.22-1.72,2.62-4.9,0.91-7.12
							C5.22-84.33,2.03-84.74-0.19-83.02C-0.19-83.02-0.19-83.02-0.19-83.02z"/>
					</g>
					<g id="Path_1008">
						<path class="st3" d="M-11.48-63.8c-1.51,1.17-1.79,3.34-0.62,4.85c1.17,1.51,3.34,1.79,4.85,0.62
							c1.51-1.17,1.79-3.34,0.62-4.85C-7.8-64.69-9.97-64.97-11.48-63.8C-11.48-63.8-11.48-63.8-11.48-63.8z"/>
					</g>
					<g id="Path_1009">
						<path class="st3" d="M1.21-48.89c-1.65,1.28-1.96,3.65-0.68,5.3s3.65,1.96,5.3,0.68c1.65-1.28,1.96-3.65,0.68-5.3c0,0,0,0,0,0
							C5.23-49.86,2.86-50.17,1.21-48.89z"/>
					</g>
					<g id="Path_1010">
						<path class="st3" d="M-2.69-46.77c-0.81,0.63-0.96,1.8-0.33,2.61c0.63,0.81,1.8,0.96,2.61,0.33c0.81-0.63,0.96-1.79,0.33-2.61
							C-0.71-47.25-1.87-47.4-2.69-46.77C-2.69-46.77-2.69-46.77-2.69-46.77z"/>
					</g>
					<g id="Path_1011">
						<path class="st3" d="M6.89-78.87c-1.11,0.86-1.31,2.45-0.46,3.56S8.89-74,10-74.86c1.11-0.86,1.31-2.45,0.46-3.56c0,0,0,0,0,0
							C9.6-79.53,8-79.73,6.89-78.87z"/>
					</g>
					<g id="Path_1012">
						<path class="st3" d="M13.37-73.79c-0.66,0.51-0.79,1.47-0.27,2.13c0.51,0.66,1.47,0.79,2.13,0.27
							c0.66-0.51,0.79-1.47,0.27-2.13c0,0,0,0,0,0C14.98-74.19,14.03-74.31,13.37-73.79z"/>
					</g>
					<g id="Path_1013">
						<path class="st3" d="M19.75-53.13c-0.48,0.37-0.57,1.06-0.2,1.54c0.37,0.48,1.06,0.57,1.54,0.2c0.48-0.37,0.57-1.06,0.2-1.54
							C20.92-53.41,20.23-53.5,19.75-53.13C19.75-53.13,19.75-53.13,19.75-53.13z"/>
					</g>
					<g id="Path_1014">
						<path class="st3" d="M-6.63-63.18l-22.87,26.4l6.15-2.84l-9.89,11.07L4.62-48.64l-6.42-8.29L-6.63-63.18z"/>
					</g>
				</g>
				<g id="Group_1556" transform="translate(0 27.058)">
					<g id="Path_1015">
						<path class="st3" d="M-22.41-62.61c-3.42-0.43-6.52-2.2-8.63-4.93c-3.56-4.59-2.71-11.2,1.88-14.76c0,0,0,0,0,0
							c3.74-2.89,9.11-2.2,12,1.53c2.36,3.05,1.8,7.43-1.24,9.78c0,0,0,0,0,0c-2.5,1.93-6.09,1.47-8.02-1.02
							c-1.59-2.06-1.21-5.01,0.84-6.6c1.7-1.32,4.15-1.01,5.47,0.7c0,0,0,0,0,0c0.24,0.29,0.2,0.71-0.09,0.95s-0.71,0.2-0.95-0.09
							c-0.01-0.01-0.02-0.02-0.03-0.04c-0.87-1.11-2.47-1.32-3.58-0.46c-1.47,1.14-1.73,3.25-0.6,4.71
							c1.48,1.91,4.22,2.26,6.13,0.78c2.46-1.9,2.91-5.44,1.01-7.9c-2.44-3.14-6.96-3.72-10.11-1.29c-4.01,3.1-4.74,8.86-1.65,12.87
							c0,0,0,0,0,0.01c3.94,5.08,11.24,6.01,16.33,2.08c0.29-0.23,0.71-0.19,0.95,0.1s0.19,0.71-0.1,0.95
							c-0.01,0.01-0.01,0.01-0.02,0.02C-15.54-63.1-18.99-62.16-22.41-62.61z"/>
					</g>
				</g>
				<g id="Group_1557" transform="translate(36.768 50.272)">
					<g id="Path_1016">
						<path class="st3" d="M-28.3-74.3c-1.56-0.19-2.97-1-3.93-2.24c-1.62-2.09-1.24-5.1,0.85-6.72c0,0,0,0,0.01,0
							c1.7-1.31,4.15-1,5.46,0.7c1.07,1.39,0.82,3.38-0.57,4.46c-1.14,0.88-2.77,0.67-3.65-0.47c-0.72-0.94-0.55-2.28,0.38-3.01
							c0.77-0.6,1.89-0.46,2.49,0.32c0,0,0,0,0,0c0.1,0.13,0.08,0.33-0.05,0.43s-0.33,0.08-0.43-0.05c-0.39-0.51-1.12-0.6-1.63-0.21
							c-0.67,0.52-0.79,1.48-0.27,2.15c0.68,0.86,1.92,1.02,2.79,0.36c1.12-0.87,1.33-2.48,0.46-3.6c0,0,0,0,0,0
							c-1.11-1.43-3.17-1.69-4.6-0.59c-1.83,1.41-2.16,4.04-0.75,5.86c0,0,0,0,0,0c1.79,2.31,5.12,2.74,7.43,0.95
							c0.13-0.1,0.33-0.08,0.43,0.05c0.1,0.13,0.08,0.33-0.05,0.43C-25.18-74.53-26.75-74.1-28.3-74.3z"/>
					</g>
				</g>
				<g id="Group_1558" transform="translate(24.672 61.219)">
					<g id="Path_1017">
						<path class="st3" d="M-23.48-65.46c-0.07,0.59-0.62,1.02-1.21,0.94c0,0,0,0,0,0l0,0c-0.6-0.08-1.02-0.62-0.94-1.22l2.22-17.4
							c0.08-0.6,0.62-1.02,1.22-0.94l0,0c0.59,0.08,1.02,0.62,0.94,1.21c0,0,0,0,0,0L-23.48-65.46z"/>
					</g>
					<g id="Path_1018">
						<path class="st3" d="M-14.62-74.27c0.6,0.08,1.02,0.62,0.94,1.22c0,0,0,0,0,0l0,0c-0.08,0.6-0.62,1.02-1.21,0.94c0,0,0,0,0,0
							l-17.4-2.22c-0.6-0.08-1.02-0.62-0.94-1.22l0,0c0.08-0.6,0.62-1.02,1.21-0.94L-14.62-74.27z"/>
					</g>
				</g>
				<g id="Group_1559" transform="translate(46.689 61.021)">
					<g id="Path_1019">
						<path class="st3" d="M-26.9-77.72c0.16,0.21,0.12,0.51-0.09,0.68l0,0c-0.21,0.16-0.52,0.13-0.68-0.09l-4.77-6.17
							c-0.16-0.21-0.13-0.51,0.09-0.68c0,0,0,0,0,0l0,0c0.21-0.16,0.51-0.12,0.68,0.09c0,0,0,0,0,0L-26.9-77.72z"/>
					</g>
					<g id="Path_1020">
						<path class="st3" d="M-26.88-83.28c0.21-0.16,0.51-0.12,0.68,0.09c0,0,0,0,0,0l0,0c0.16,0.21,0.13,0.51-0.09,0.68c0,0,0,0,0,0
							l-6.17,4.77c-0.21,0.16-0.51,0.12-0.68-0.09c0,0,0,0,0,0l0,0c-0.16-0.21-0.13-0.51,0.08-0.68c0,0,0,0,0,0L-26.88-83.28z"/>
					</g>
				</g>
				<g id="Group_1560" transform="translate(25.616 30.878)">
					<g id="Path_1021">
						<path class="st3" d="M-26.9-77.72c0.16,0.21,0.13,0.51-0.09,0.68c0,0,0,0,0,0l0,0c-0.21,0.16-0.51,0.12-0.68-0.09l-4.77-6.17
							c-0.16-0.21-0.12-0.51,0.09-0.68l0,0c0.21-0.16,0.52-0.12,0.68,0.09c0,0,0,0,0,0L-26.9-77.72z"/>
					</g>
					<g id="Path_1022">
						<path class="st3" d="M-26.88-83.28c0.21-0.16,0.52-0.13,0.68,0.09l0,0c0.16,0.21,0.12,0.51-0.09,0.68c0,0,0,0,0,0l-6.17,4.77
							c-0.21,0.16-0.52,0.13-0.68-0.09l0,0c-0.16-0.21-0.12-0.51,0.09-0.68L-26.88-83.28z"/>
					</g>
				</g>
			</g>
			<g id="Group_1568" transform="translate(0 121.953)">
				<g id="Group_1562" transform="translate(0 19.329)">
					<g id="Path_1023">
						<path class="st3" d="M-13.38-54.45c-0.1-0.12-0.18-0.25-0.27-0.38c-4.56,1.57-9.52-0.86-11.09-5.41
							c-0.9-2.63-0.5-5.53,1.09-7.81c-2.32-1.68-2.84-4.92-1.16-7.23c1.68-2.32,4.92-2.84,7.23-1.16c1.49,1.08,2.3,2.88,2.12,4.71
							c4.58,0.54,7.95,4.56,7.68,9.16c2.74,0.83,4.28,3.73,3.45,6.46c-0.83,2.74-3.73,4.28-6.46,3.45
							C-11.83-52.98-12.73-53.6-13.38-54.45L-13.38-54.45z"/>
					</g>
					<g id="Path_1024">
						<path class="st3" d="M-15.99-53.12c0.83-0.64,2.02-0.49,2.67,0.34c0.64,0.83,0.49,2.02-0.34,2.67
							c-0.83,0.64-2.02,0.49-2.66-0.34C-16.98-51.28-16.82-52.48-15.99-53.12C-15.99-53.12-15.99-53.12-15.99-53.12z"/>
					</g>
					<g id="Path_1025">
						<path class="st3" d="M-31.77-70.43c1.65-1.28,4.03-0.98,5.31,0.67s0.98,4.03-0.67,5.31c-1.65,1.28-4.03,0.98-5.31-0.67
							c0,0,0,0,0-0.01C-33.72-66.79-33.42-69.16-31.77-70.43z"/>
					</g>
					<g id="Path_1026">
						<path class="st3" d="M-15.8-74.99c1.13-0.87,2.74-0.66,3.62,0.46s0.66,2.74-0.46,3.62c-1.13,0.87-2.74,0.66-3.62-0.46
							c0,0,0,0,0,0C-17.13-72.5-16.93-74.11-15.8-74.99C-15.8-74.98-15.8-74.99-15.8-74.99z"/>
					</g>
					<g id="Path_1027">
						<path class="st3" d="M-7.42-63.04c1.23-0.95,3-0.73,3.95,0.5c0.95,1.23,0.73,3-0.5,3.95c-1.23,0.95-3,0.73-3.95-0.5
							c0,0,0,0,0,0C-8.87-60.32-8.65-62.09-7.42-63.04z"/>
					</g>
					<g id="Path_1028">
						<path class="st3" d="M-5.17-65.46c0.6-0.47,1.47-0.36,1.94,0.25c0.47,0.6,0.36,1.47-0.25,1.94c-0.6,0.47-1.47,0.36-1.94-0.25
							c0,0,0,0,0,0C-5.88-64.12-5.77-64.99-5.17-65.46z"/>
					</g>
					<g id="Path_1029">
						<path class="st3" d="M-30.1-64.55c0.83-0.64,2.01-0.49,2.65,0.34c0.64,0.83,0.49,2.01-0.34,2.65
							c-0.83,0.64-2.01,0.49-2.65-0.34C-31.08-62.72-30.93-63.91-30.1-64.55C-30.1-64.55-30.1-64.55-30.1-64.55z"/>
					</g>
					<g id="Path_1030">
						<path class="st3" d="M-27.65-58.93c0.49-0.38,1.2-0.29,1.59,0.2s0.29,1.2-0.2,1.59c-0.49,0.38-1.2,0.29-1.59-0.2c0,0,0,0,0,0
							C-28.23-57.84-28.15-58.55-27.65-58.93z"/>
					</g>
					<g id="Path_1031">
						<path class="st3" d="M-13.94-50.47c0.36-0.28,0.87-0.21,1.15,0.15c0.28,0.36,0.21,0.87-0.15,1.15
							c-0.36,0.28-0.87,0.21-1.15-0.15c0,0,0,0,0,0C-14.37-49.68-14.3-50.19-13.94-50.47C-13.94-50.47-13.94-50.47-13.94-50.47z"/>
					</g>
					<g id="Path_1032">
						<path class="st3" d="M-16.26-71.37L7.05-82.92l-3.2,3.9l9.83-5.06L-7.87-60.53l-4.78-6.18L-16.26-71.37z"/>
					</g>
				</g>
				<g id="Group_1563" transform="translate(28.504)">
					<g id="Path_1033">
						<path class="st3" d="M-17.83-73.89c0.33-2.54-0.37-5.12-1.94-7.14c-2.65-3.42-7.57-4.05-11-1.4c0,0,0,0,0,0
							c-2.78,2.16-3.29,6.16-1.14,8.94c1.76,2.27,5.02,2.68,7.29,0.93c1.86-1.44,2.2-4.11,0.76-5.97c-1.19-1.53-3.39-1.81-4.92-0.63
							c-1.27,0.98-1.5,2.8-0.53,4.07c0,0,0,0.01,0.01,0.01c0.17,0.22,0.48,0.26,0.7,0.09c0.22-0.17,0.26-0.48,0.09-0.7
							c-0.64-0.83-0.49-2.03,0.34-2.67c1.09-0.84,2.67-0.64,3.51,0.45c1.1,1.42,0.84,3.47-0.58,4.57c-1.83,1.42-4.47,1.08-5.88-0.75
							c0,0,0,0,0,0c-1.81-2.35-1.38-5.71,0.96-7.53c2.98-2.31,7.27-1.77,9.59,1.22c0,0,0,0.01,0.01,0.01
							c2.92,3.79,2.23,9.23-1.55,12.16c-0.23,0.15-0.29,0.46-0.14,0.69c0.15,0.23,0.46,0.29,0.69,0.14
							c0.02-0.01,0.04-0.03,0.06-0.04C-19.47-69.04-18.15-71.35-17.83-73.89z"/>
					</g>
				</g>
				<g id="Group_1564" transform="translate(39.43 29.963)">
					<g id="Path_1034">
						<path class="st3" d="M-26.22-79.44c0.15-1.16-0.17-2.33-0.88-3.25c-1.2-1.56-3.44-1.85-5-0.64c0,0,0,0-0.01,0.01
							c-1.27,0.98-1.5,2.8-0.52,4.07c0.8,1.03,2.29,1.22,3.32,0.42c0.85-0.66,1-1.87,0.35-2.72c-0.54-0.7-1.54-0.82-2.24-0.29
							c-0.58,0.45-0.68,1.28-0.24,1.86c0.07,0.1,0.21,0.13,0.32,0.06c0.1-0.07,0.13-0.21,0.06-0.32c0-0.01-0.01-0.01-0.01-0.02
							c-0.29-0.38-0.22-0.92,0.16-1.22c0.5-0.38,1.21-0.3,1.6,0.2c0.5,0.65,0.38,1.58-0.27,2.08c-0.84,0.64-2.03,0.49-2.68-0.34
							c-0.82-1.07-0.63-2.6,0.44-3.43c1.36-1.05,3.31-0.8,4.37,0.56c1.33,1.73,1.02,4.2-0.71,5.54c-0.1,0.08-0.12,0.22-0.04,0.32
							c0.08,0.1,0.22,0.12,0.32,0.04l0,0C-26.97-77.23-26.37-78.28-26.22-79.44z"/>
					</g>
				</g>
				<g id="Group_1565" transform="translate(48.409 24.137)">
					<g id="Path_1035">
						<path class="st3" d="M-19.57-75.16c0.44,0.06,0.85-0.26,0.91-0.7c0,0,0,0,0,0l0,0c0.06-0.44-0.26-0.85-0.7-0.91l-12.96-1.65
							c-0.44-0.06-0.85,0.26-0.91,0.7l0,0c-0.06,0.44,0.26,0.85,0.7,0.91L-19.57-75.16z"/>
					</g>
					<g id="Path_1036">
						<path class="st3" d="M-27.58-70.41c-0.06,0.44,0.26,0.85,0.7,0.91c0,0,0,0,0,0l0,0c0.44,0.06,0.85-0.26,0.91-0.7c0,0,0,0,0,0
							l1.65-12.96c0.06-0.44-0.26-0.85-0.7-0.91l0,0c-0.44-0.06-0.85,0.26-0.91,0.7L-27.58-70.41z"/>
					</g>
				</g>
				<g id="Group_1566" transform="translate(45.46 38.963)">
					<g id="Path_1037">
						<path class="st3" d="M-29.09-78.9c0.12,0.16,0.35,0.19,0.51,0.07l0,0c0.16-0.12,0.19-0.35,0.07-0.51l-3.56-4.6
							c-0.12-0.16-0.35-0.19-0.5-0.07c0,0,0,0,0,0l0,0c-0.16,0.12-0.19,0.35-0.06,0.51c0,0,0,0,0,0L-29.09-78.9z"/>
					</g>
					<g id="Path_1038">
						<path class="st3" d="M-33.1-79.93c-0.16,0.12-0.19,0.35-0.07,0.5c0,0,0,0,0,0l0,0c0.12,0.16,0.35,0.19,0.51,0.07l4.6-3.56
							c0.15-0.12,0.18-0.34,0.07-0.5l0,0c-0.12-0.16-0.35-0.19-0.51-0.07L-33.1-79.93z"/>
					</g>
				</g>
				<g id="Group_1567" transform="translate(27.664 18.13)">
					<g id="Path_1039">
						<path class="st3" d="M-29.09-78.9c0.12,0.15,0.34,0.18,0.5,0.07l0,0c0.16-0.12,0.19-0.35,0.07-0.5c0,0,0,0,0,0l-3.56-4.6
							c-0.12-0.16-0.34-0.19-0.5-0.07c0,0,0,0,0,0l0,0c-0.16,0.12-0.18,0.34-0.07,0.5L-29.09-78.9z"/>
					</g>
					<g id="Path_1040">
						<path class="st3" d="M-33.1-79.93c-0.16,0.12-0.18,0.34-0.07,0.5l0,0c0.12,0.16,0.35,0.19,0.5,0.07c0,0,0,0,0,0l4.6-3.56
							c0.15-0.12,0.18-0.34,0.07-0.5l0,0c-0.12-0.16-0.35-0.19-0.5-0.07c0,0,0,0,0,0L-33.1-79.93z"/>
					</g>
				</g>
			</g>
		</g>
	</g>
	<g id="Group_1571" transform="translate(235.89 99.27)">
		<g id="Path_1041">
			<path class="st3" d="M-7.72-99.27l-6.87,30.38l30.25-7.42L-7.72-99.27z"/>
		</g>
		<g id="Rectangle_1732">
			<path class="st3" d="M-7.72-85.36l9.7-9.86c1.99-2.03,5.25-2.05,7.28-0.06l2.14,2.1c2.03,1.99,2.05,5.25,0.06,7.28l0,0l-9.7,9.86
				c-1.99,2.03-5.25,2.05-7.27,0.06c0,0,0,0,0,0l-2.14-2.1C-9.69-80.08-9.71-83.33-7.72-85.36z"/>
		</g>
	</g>
	<g class="st11">
		<path class="st3" d="M135.06,60.44c-1.31,0-2.6-0.12-3.86-0.37c-1.26-0.25-2.47-0.65-3.62-1.22c0.22,1.97,0.39,3.87,0.52,5.7
			c0.13,1.83,0.23,3.6,0.3,5.33c0.07,1.73,0.12,3.41,0.14,5.04c0.02,1.63,0.03,3.25,0.03,4.86h-8.41c0-3.69-0.07-7.34-0.22-10.94
			c-0.15-3.61-0.45-7.07-0.92-10.4c-0.47-3.32-1.14-6.45-2.03-9.38s-2.08-5.56-3.57-7.9l7.09-4.46c0.58,0.99,1.13,1.91,1.64,2.78
			s0.96,1.73,1.34,2.59c0.57-0.8,1.23-1.54,1.99-2.22c0.76-0.67,1.58-1.26,2.45-1.75c0.88-0.49,1.8-0.89,2.77-1.21
			c0.97-0.31,1.94-0.5,2.9-0.58c0.26-0.02,0.54-0.03,0.86-0.03c0.32,0,0.62,0,0.89,0c0.79,0,1.58,0.04,2.37,0.12s1.59,0.25,2.4,0.49
			c0.8,0.25,1.6,0.61,2.4,1.08c0.79,0.48,1.57,1.1,2.34,1.86l-4.38,6.9c0-0.02-0.2-0.14-0.6-0.36s-0.92-0.46-1.55-0.73
			s-1.32-0.5-2.08-0.7c-0.76-0.2-1.49-0.29-2.21-0.27c-0.4,0.05-0.85,0.16-1.36,0.32c-0.5,0.16-1,0.35-1.49,0.58
			c-0.49,0.23-0.97,0.49-1.44,0.78c-0.47,0.29-0.87,0.6-1.21,0.92s-0.6,0.65-0.79,1c-0.19,0.35-0.26,0.69-0.21,1.01v-0.03
			c0.11,0.57,0.43,1.04,0.97,1.41c0.54,0.37,1.18,0.67,1.92,0.89c0.74,0.22,1.51,0.37,2.31,0.45c0.8,0.08,1.53,0.12,2.19,0.12
			c0.64,0,1.33-0.05,2.08-0.15c0.75-0.1,1.51-0.25,2.29-0.45c0.78-0.2,1.54-0.45,2.29-0.75c0.75-0.3,1.44-0.65,2.08-1.05l3.53,6.57
			c-2.16,1.57-4.25,2.65-6.29,3.25C138.9,60.14,136.94,60.44,135.06,60.44z"/>
		<path class="st3" d="M148.81,64.6c0-1.41,0.27-2.73,0.81-3.99c0.54-1.25,1.27-2.34,2.19-3.27c0.92-0.93,2-1.67,3.25-2.22
			s2.57-0.82,4-0.82c1.41,0,2.73,0.27,3.99,0.82c1.25,0.55,2.34,1.29,3.27,2.22c0.93,0.93,1.67,2.02,2.22,3.27
			c0.55,1.25,0.82,2.58,0.82,3.99c0,1.42-0.27,2.76-0.82,4c-0.55,1.24-1.29,2.32-2.22,3.25c-0.93,0.92-2.02,1.65-3.27,2.19
			c-1.25,0.54-2.58,0.81-3.99,0.81c-1.42,0-2.76-0.27-4-0.81c-1.24-0.54-2.32-1.27-3.25-2.19c-0.92-0.92-1.65-2-2.19-3.25
			C149.08,67.36,148.81,66.02,148.81,64.6z M154.97,64.6c0,0.57,0.1,1.1,0.31,1.59s0.5,0.93,0.88,1.3c0.37,0.37,0.81,0.67,1.3,0.88
			s1.02,0.32,1.59,0.32s1.1-0.11,1.6-0.32c0.5-0.21,0.94-0.5,1.31-0.88c0.37-0.37,0.67-0.81,0.89-1.3s0.33-1.02,0.33-1.59
			c0-0.57-0.11-1.1-0.33-1.6s-0.52-0.94-0.89-1.32c-0.37-0.37-0.81-0.67-1.31-0.89c-0.5-0.22-1.04-0.33-1.6-0.33
			s-1.1,0.11-1.59,0.33c-0.49,0.22-0.93,0.52-1.3,0.89c-0.37,0.38-0.67,0.81-0.88,1.32S154.97,64.03,154.97,64.6z"/>
		<path class="st3" d="M194.23,60.44c-1.31,0-2.6-0.12-3.86-0.37c-1.26-0.25-2.47-0.65-3.62-1.22c0.22,1.97,0.39,3.87,0.52,5.7
			c0.13,1.83,0.23,3.6,0.3,5.33c0.07,1.73,0.12,3.41,0.14,5.04c0.02,1.63,0.03,3.25,0.03,4.86h-8.41c0-3.69-0.07-7.34-0.22-10.94
			c-0.15-3.61-0.45-7.07-0.92-10.4c-0.47-3.32-1.14-6.45-2.03-9.38s-2.08-5.56-3.57-7.9l7.09-4.46c0.58,0.99,1.13,1.91,1.64,2.78
			s0.96,1.73,1.34,2.59c0.57-0.8,1.23-1.54,1.99-2.22c0.76-0.67,1.58-1.26,2.45-1.75s1.8-0.89,2.77-1.21
			c0.97-0.31,1.94-0.5,2.9-0.58c0.26-0.02,0.54-0.03,0.86-0.03c0.32,0,0.62,0,0.89,0c0.79,0,1.58,0.04,2.37,0.12s1.59,0.25,2.4,0.49
			c0.8,0.25,1.6,0.61,2.4,1.08c0.79,0.48,1.57,1.1,2.34,1.86l-4.38,6.9c0-0.02-0.2-0.14-0.6-0.36s-0.92-0.46-1.55-0.73
			s-1.32-0.5-2.08-0.7c-0.76-0.2-1.49-0.29-2.21-0.27c-0.4,0.05-0.85,0.16-1.36,0.32c-0.5,0.16-1,0.35-1.49,0.58
			c-0.49,0.23-0.97,0.49-1.44,0.78c-0.47,0.29-0.87,0.6-1.21,0.92s-0.6,0.65-0.79,1c-0.19,0.35-0.26,0.69-0.21,1.01v-0.03
			c0.11,0.57,0.43,1.04,0.97,1.41s1.18,0.67,1.92,0.89c0.74,0.22,1.51,0.37,2.31,0.45c0.8,0.08,1.53,0.12,2.19,0.12
			c0.64,0,1.33-0.05,2.08-0.15c0.75-0.1,1.51-0.25,2.29-0.45c0.78-0.2,1.54-0.45,2.29-0.75c0.75-0.3,1.44-0.65,2.08-1.05l3.53,6.57
			c-2.16,1.57-4.25,2.65-6.29,3.25C198.07,60.14,196.11,60.44,194.23,60.44z"/>
	</g>
</g>
</svg>
